<svg xmlns="http://www.w3.org/2000/svg" xmlns:xlink="http://www.w3.org/1999/xlink" width="500" zoomAndPan="magnify" viewBox="0 0 375 374.999991" height="500" preserveAspectRatio="xMidYMid meet" version="1.0"><defs><clipPath id="1439f49187"><path d="M 115 44 L 358 44 L 358 288 L 115 288 Z M 115 44 " clip-rule="nonzero"/></clipPath><clipPath id="265e6033c0"><path d="M 187.515625 37.5 L 365.25 215.234375 L 285.84375 294.640625 L 108.109375 116.910156 Z M 187.515625 37.5 " clip-rule="nonzero"/></clipPath><clipPath id="f3d92535e8"><path d="M 199.714844 49.699219 L 352.835938 202.820312 C 359.574219 209.558594 359.574219 220.480469 352.835938 227.214844 L 297.824219 282.226562 C 291.089844 288.964844 280.164062 288.964844 273.429688 282.226562 L 120.308594 129.105469 C 113.570312 122.371094 113.570312 111.445312 120.308594 104.710938 L 175.320312 49.699219 C 182.054688 42.960938 192.976562 42.960938 199.714844 49.699219 Z M 199.714844 49.699219 " clip-rule="nonzero"/></clipPath><clipPath id="dd6c66c68f"><path d="M 17 44 L 260 44 L 260 288 L 17 288 Z M 17 44 " clip-rule="nonzero"/></clipPath><clipPath id="77780f860e"><path d="M 9.964844 215.011719 L 187.699219 37.277344 L 267.105469 116.683594 L 89.371094 294.417969 Z M 9.964844 215.011719 " clip-rule="nonzero"/></clipPath><clipPath id="dd97890c02"><path d="M 22.160156 202.816406 L 175.285156 49.691406 C 182.019531 42.957031 192.941406 42.957031 199.679688 49.691406 L 254.691406 104.703125 C 261.425781 111.441406 261.425781 122.363281 254.691406 129.101562 L 101.566406 282.222656 C 94.832031 288.957031 83.910156 288.957031 77.171875 282.222656 L 22.160156 227.210938 C 15.425781 220.472656 15.425781 209.550781 22.160156 202.816406 Z M 22.160156 202.816406 " clip-rule="nonzero"/></clipPath></defs><g clip-path="url(#1439f49187)"><g clip-path="url(#265e6033c0)"><g clip-path="url(#f3d92535e8)"><path fill="#ff5757" d="M 187.515625 37.5 L 364.941406 214.925781 L 285.535156 294.332031 L 108.109375 116.910156 Z M 187.515625 37.5 " fill-opacity="1" fill-rule="nonzero"/></g></g></g><g clip-path="url(#dd6c66c68f)"><g clip-path="url(#77780f860e)"><g clip-path="url(#dd97890c02)"><path fill="#ff5757" d="M 9.964844 215.011719 L 187.386719 37.589844 L 266.792969 116.996094 L 89.371094 294.417969 Z M 9.964844 215.011719 " fill-opacity="1" fill-rule="nonzero"/></g></g></g></svg>