<svg viewBox="0 0 16 16" fill="#000000" xmlns="http://www.w3.org/2000/svg" id="Bluesky-Line--Streamline-Remix" height="16" width="16"><desc>Bluesky Line Streamline Icon: https://streamlinehq.com</desc><path d="M3.271513333333333 2.29286c0.4724466666666667 0.08053333333333333 1.0219266666666666 0.3347333333333333 1.7171666666666667 0.8317066666666666C6.186513333333332 3.980793333333333 7.179133333333334 5.15938 8 6.37574c0.8208666666666666 -1.2163599999999999 1.8134666666666668 -2.394946666666667 3.0113333333333334 -3.251173333333333 0.6951999999999999 -0.4969733333333333 1.2447333333333332 -0.7511733333333332 1.7171333333333332 -0.8317066666666666 0.5118666666666667 -0.08726 0.8598666666666667 0.042859999999999995 1.077 0.13334666666666667C14.477733333333333 2.7063733333333335 14.666666666666666 3.4833866666666666 14.666666666666666 4.143073333333334c0 0.13458666666666666 -0.05706666666666666 0.8679933333333333 -0.12346666666666667 1.5736466666666664 -0.03426666666666667 0.3638666666666666 -0.07273333333333333 0.7386533333333333 -0.11079999999999998 1.0509466666666665 -0.034866666666666664 0.2859333333333333 -0.0766 0.5870666666666666 -0.1266 0.7555999999999999 -0.2284 0.7697333333333334 -0.7081333333333333 1.3179333333333334 -1.3004666666666667 1.6781333333333333 0.6248666666666667 0.47139999999999993 0.8516 1.2374666666666667 0.6185999999999999 1.9889999999999999 -0.3977333333333333 1.2829333333333333 -1.8245333333333333 2.9318 -3.2236 3.078733333333333 -1.1816 0.12406666666666666 -1.9562 -0.8828666666666667 -2.400333333333333 -1.8392 -0.4441333333333333 0.9563333333333334 -1.2187333333333332 1.9632666666666667 -2.4003066666666664 1.8392 -1.39906 -0.14693333333333333 -2.825893333333333 -1.7958 -3.22364 -3.078733333333333 -0.23300666666666664 -0.7515333333333333 -0.006279999999999999 -1.5176 0.6185933333333333 -1.9889999999999999 -0.5923466666666666 -0.36019999999999996 -1.07202 -0.9084 -1.3004333333333333 -1.6781333333333333 -0.05000666666666666 -0.16853333333333334 -0.09176666666666666 -0.4696666666666667 -0.12661999999999998 -0.7555999999999999 -0.038066666666666665 -0.3122933333333333 -0.07654 -0.68708 -0.11078666666666666 -1.0509466666666665C1.3903933333333331 5.011066666666666 1.3333333333333333 4.277659999999999 1.3333333333333333 4.143073333333334c0 -0.6596866666666666 0.18895333333333333 -1.4367 0.8612133333333333 -1.7168666666666665 0.21714 -0.09048666666666666 0.5651133333333334 -0.22060666666666665 1.0769666666666666 -0.13334666666666667Zm-0.5721066666666667 2.318533333333333c0.04279999999999999 0.54518 0.11985333333333333 1.40532 0.19172 1.9949199999999998 0.021719999999999996 0.17815333333333333 0.03696666666666666 0.3627533333333333 0.08129333333333333 0.53742 0.26515999999999995 0.8936 1.2861066666666665 1.3881333333333332 2.45762 1.2582666666666666 0.36119999999999997 -0.04006666666666667 0.6879266666666666 0.2165333333333333 0.7346066666666666 0.5769333333333333 0.04667333333333333 0.36039999999999994 -0.20389333333333332 0.6918 -0.5633733333333333 0.7450666666666665 -0.5038866666666666 0.07473333333333333 -2.210233333333333 0.23766666666666664 -1.9516866666666666 1.0715999999999999 0.23788 0.7672666666666667 1.2318266666666666 2.0574666666666666 2.08936 2.1474666666666664 0.6184266666666667 0.065 0.9999866666666667 -0.9289999999999999 1.17712 -1.3632666666666666 0.18319999999999997 -0.4492666666666667 0.32539999999999997 -0.9196 0.4450666666666666 -1.3208 0.08426666666666667 -0.28246666666666664 0.34406666666666663 -0.47606666666666664 0.6388666666666667 -0.47606666666666664 0.29479999999999995 0 0.5546 0.1936 0.6388666666666667 0.47606666666666664 0.11966666666666666 0.4012 0.26186666666666664 0.8715333333333333 0.4450666666666666 1.3208 0.1771333333333333 0.43426666666666663 0.5586666666666666 1.4282666666666666 1.1771333333333334 1.3632666666666666 0.8575333333333333 -0.09 1.8514666666666666 -1.3801999999999999 2.0893333333333333 -2.1474666666666664 0.2585333333333333 -0.8339333333333332 -1.4478 -0.9968666666666667 -1.9516666666666667 -1.0715999999999999 -0.35946666666666666 -0.053266666666666664 -0.6100666666666666 -0.3846666666666666 -0.5633999999999999 -0.7450666666666665 0.04673333333333333 -0.36039999999999994 0.3734 -0.617 0.7346 -0.5769333333333333 1.1715333333333333 0.12986666666666666 2.1924666666666663 -0.3644666666666666 2.4576 -1.2580666666666667 0.045799999999999993 -0.17726666666666668 0.05913333333333333 -0.3572666666666667 0.08133333333333333 -0.5376133333333333 0.07186666666666666 -0.5896066666666666 0.1489333333333333 -1.4497466666666665 0.19173333333333334 -1.9949266666666665 0.024466666666666668 -0.3119133333333333 0.16506666666666664 -1.0916333333333332 -0.34806666666666664 -1.0041666666666667 -0.1906 0.0325 -0.5486 0.16080666666666665 -1.1658666666666666 0.6020466666666666 -1.2950666666666666 0.9257399999999999 -2.4700666666666664 2.341833333333333 -3.1926666666666663 3.7600599999999997 -0.11379999999999998 0.22333333333333333 -0.3433333333333333 0.364 -0.594 0.364s-0.4802 -0.14066666666666666 -0.594 -0.364c-0.7226 -1.4182266666666665 -1.8976133333333334 -2.83432 -3.1926799999999997 -3.7600599999999997 -0.6172799999999999 -0.44123999999999997 -0.9752333333333333 -0.5695466666666666 -1.1658733333333333 -0.6020466666666666 -0.5225133333333333 -0.08906666666666666 -0.3727466666666666 0.6894666666666667 -0.34803999999999996 1.0041666666666667Z" stroke-width="0.6667"></path></svg>