<svg xmlns="http://www.w3.org/2000/svg" xmlns:xlink="http://www.w3.org/1999/xlink" width="500" zoomAndPan="magnify" viewBox="0 0 375 374.999991" height="500" preserveAspectRatio="xMidYMid meet" version="1.0"><defs><clipPath id="0aeeb400ca"><path d="M 37.5 51.332031 L 309.835938 51.332031 L 309.835938 323.667969 L 37.5 323.667969 Z M 37.5 51.332031 " clip-rule="nonzero"/></clipPath><clipPath id="456b10ba61"><path d="M 54.75 51.332031 L 292.585938 51.332031 C 297.164062 51.332031 301.550781 53.148438 304.785156 56.382812 C 308.019531 59.617188 309.835938 64.007812 309.835938 68.582031 L 309.835938 306.417969 C 309.835938 310.992188 308.019531 315.382812 304.785156 318.617188 C 301.550781 321.851562 297.164062 323.667969 292.585938 323.667969 L 54.75 323.667969 C 50.175781 323.667969 45.789062 321.851562 42.550781 318.617188 C 39.316406 315.382812 37.5 310.992188 37.5 306.417969 L 37.5 68.582031 C 37.5 64.007812 39.316406 59.617188 42.550781 56.382812 C 45.789062 53.148438 50.175781 51.332031 54.75 51.332031 Z M 54.75 51.332031 " clip-rule="nonzero"/></clipPath><clipPath id="977bf87053"><path d="M 65.183594 51.332031 L 337.519531 51.332031 L 337.519531 323.667969 L 65.183594 323.667969 Z M 65.183594 51.332031 " clip-rule="nonzero"/></clipPath><clipPath id="308f5a25dc"><path d="M 82.433594 51.332031 L 320.269531 51.332031 C 324.847656 51.332031 329.234375 53.148438 332.46875 56.382812 C 335.703125 59.617188 337.519531 64.007812 337.519531 68.582031 L 337.519531 306.417969 C 337.519531 310.992188 335.703125 315.382812 332.46875 318.617188 C 329.234375 321.851562 324.847656 323.667969 320.269531 323.667969 L 82.433594 323.667969 C 77.859375 323.667969 73.472656 321.851562 70.234375 318.617188 C 67 315.382812 65.183594 310.992188 65.183594 306.417969 L 65.183594 68.582031 C 65.183594 64.007812 67 59.617188 70.234375 56.382812 C 73.472656 53.148438 77.859375 51.332031 82.433594 51.332031 Z M 82.433594 51.332031 " clip-rule="nonzero"/></clipPath><clipPath id="cfb4d0eb93"><path d="M 89.285156 72.933594 L 313.523438 72.933594 L 313.523438 132.667969 L 89.285156 132.667969 Z M 89.285156 72.933594 " clip-rule="nonzero"/></clipPath><clipPath id="700c5ddbb1"><path d="M 106.535156 72.933594 L 296.171875 72.933594 C 300.746094 72.933594 305.132812 74.75 308.367188 77.984375 C 311.601562 81.21875 313.421875 85.605469 313.421875 90.183594 L 313.421875 115.417969 C 313.421875 119.992188 311.601562 124.378906 308.367188 127.613281 C 305.132812 130.851562 300.746094 132.667969 296.171875 132.667969 L 106.535156 132.667969 C 101.960938 132.667969 97.570312 130.851562 94.335938 127.613281 C 91.101562 124.378906 89.285156 119.992188 89.285156 115.417969 L 89.285156 90.183594 C 89.285156 85.605469 91.101562 81.21875 94.335938 77.984375 C 97.570312 74.75 101.960938 72.933594 106.535156 72.933594 Z M 106.535156 72.933594 " clip-rule="nonzero"/></clipPath><clipPath id="e04cab6eff"><path d="M 89.285156 157.632812 L 313.523438 157.632812 L 313.523438 217.367188 L 89.285156 217.367188 Z M 89.285156 157.632812 " clip-rule="nonzero"/></clipPath><clipPath id="95519251c6"><path d="M 106.535156 157.632812 L 296.171875 157.632812 C 300.746094 157.632812 305.132812 159.449219 308.367188 162.683594 C 311.601562 165.917969 313.421875 170.308594 313.421875 174.882812 L 313.421875 200.117188 C 313.421875 204.691406 311.601562 209.082031 308.367188 212.316406 C 305.132812 215.550781 300.746094 217.367188 296.171875 217.367188 L 106.535156 217.367188 C 101.960938 217.367188 97.570312 215.550781 94.335938 212.316406 C 91.101562 209.082031 89.285156 204.691406 89.285156 200.117188 L 89.285156 174.882812 C 89.285156 170.308594 91.101562 165.917969 94.335938 162.683594 C 97.570312 159.449219 101.960938 157.632812 106.535156 157.632812 Z M 106.535156 157.632812 " clip-rule="nonzero"/></clipPath><clipPath id="c706fef175"><path d="M 93.503906 242.234375 L 145.253906 242.234375 L 145.253906 293.984375 L 93.503906 293.984375 Z M 93.503906 242.234375 " clip-rule="nonzero"/></clipPath><clipPath id="8666c2d16e"><path d="M 161.585938 242.234375 L 213.335938 242.234375 L 213.335938 293.984375 L 161.585938 293.984375 Z M 161.585938 242.234375 " clip-rule="nonzero"/></clipPath><clipPath id="0d871b5990"><path d="M 229.617188 242.234375 L 281.367188 242.234375 L 281.367188 293.984375 L 229.617188 293.984375 Z M 229.617188 242.234375 " clip-rule="nonzero"/></clipPath></defs><g clip-path="url(#0aeeb400ca)"><g clip-path="url(#456b10ba61)"><path fill="#ff5757" d="M 37.5 51.332031 L 309.835938 51.332031 L 309.835938 323.667969 L 37.5 323.667969 Z M 37.5 51.332031 " fill-opacity="1" fill-rule="nonzero"/></g></g><g clip-path="url(#977bf87053)"><g clip-path="url(#308f5a25dc)"><path fill="#f00b51" d="M 65.183594 51.332031 L 337.519531 51.332031 L 337.519531 323.667969 L 65.183594 323.667969 Z M 65.183594 51.332031 " fill-opacity="1" fill-rule="nonzero"/></g></g><g clip-path="url(#cfb4d0eb93)"><g clip-path="url(#700c5ddbb1)"><path fill="#ff5757" d="M 89.285156 72.933594 L 313.523438 72.933594 L 313.523438 132.667969 L 89.285156 132.667969 Z M 89.285156 72.933594 " fill-opacity="1" fill-rule="nonzero"/></g></g><g clip-path="url(#e04cab6eff)"><g clip-path="url(#95519251c6)"><path fill="#ff5757" d="M 89.285156 157.632812 L 313.523438 157.632812 L 313.523438 217.367188 L 89.285156 217.367188 Z M 89.285156 157.632812 " fill-opacity="1" fill-rule="nonzero"/></g></g><g clip-path="url(#c706fef175)"><path fill="#ff5757" d="M 145.3125 268.136719 C 145.3125 268.984375 145.273438 269.832031 145.1875 270.675781 C 145.105469 271.519531 144.980469 272.359375 144.816406 273.191406 C 144.652344 274.023438 144.445312 274.84375 144.199219 275.65625 C 143.953125 276.46875 143.667969 277.265625 143.34375 278.050781 C 143.015625 278.832031 142.65625 279.601562 142.253906 280.347656 C 141.855469 281.097656 141.417969 281.824219 140.949219 282.527344 C 140.476562 283.234375 139.972656 283.914062 139.433594 284.570312 C 138.894531 285.226562 138.328125 285.855469 137.726562 286.453125 C 137.125 287.054688 136.5 287.621094 135.84375 288.160156 C 135.1875 288.699219 134.507812 289.203125 133.800781 289.675781 C 133.097656 290.148438 132.367188 290.582031 131.621094 290.984375 C 130.871094 291.382812 130.105469 291.746094 129.324219 292.070312 C 128.539062 292.394531 127.742188 292.679688 126.929688 292.925781 C 126.117188 293.171875 125.296875 293.378906 124.464844 293.542969 C 123.632812 293.710938 122.792969 293.832031 121.949219 293.917969 C 121.105469 294 120.257812 294.042969 119.410156 294.042969 C 118.5625 294.042969 117.714844 294 116.871094 293.917969 C 116.027344 293.832031 115.1875 293.710938 114.355469 293.542969 C 113.523438 293.378906 112.703125 293.171875 111.890625 292.925781 C 111.078125 292.679688 110.28125 292.394531 109.496094 292.070312 C 108.710938 291.746094 107.945312 291.382812 107.199219 290.984375 C 106.449219 290.582031 105.722656 290.148438 105.019531 289.675781 C 104.3125 289.203125 103.632812 288.699219 102.976562 288.160156 C 102.320312 287.621094 101.691406 287.054688 101.09375 286.453125 C 100.492188 285.855469 99.921875 285.226562 99.386719 284.570312 C 98.847656 283.914062 98.34375 283.234375 97.871094 282.527344 C 97.398438 281.824219 96.964844 281.097656 96.5625 280.347656 C 96.164062 279.601562 95.800781 278.832031 95.476562 278.050781 C 95.152344 277.265625 94.867188 276.46875 94.621094 275.65625 C 94.375 274.84375 94.167969 274.023438 94.003906 273.191406 C 93.835938 272.359375 93.714844 271.519531 93.628906 270.675781 C 93.546875 269.832031 93.503906 268.984375 93.503906 268.136719 C 93.503906 267.289062 93.546875 266.441406 93.628906 265.597656 C 93.714844 264.753906 93.835938 263.914062 94.003906 263.082031 C 94.167969 262.25 94.375 261.429688 94.621094 260.617188 C 94.867188 259.804688 95.152344 259.007812 95.476562 258.222656 C 95.800781 257.441406 96.164062 256.675781 96.5625 255.925781 C 96.964844 255.175781 97.398438 254.449219 97.871094 253.746094 C 98.34375 253.039062 98.847656 252.359375 99.386719 251.703125 C 99.921875 251.046875 100.492188 250.417969 101.09375 249.820312 C 101.691406 249.21875 102.320312 248.652344 102.976562 248.113281 C 103.632812 247.574219 104.3125 247.070312 105.019531 246.597656 C 105.722656 246.128906 106.449219 245.691406 107.199219 245.292969 C 107.945312 244.890625 108.710938 244.527344 109.496094 244.203125 C 110.28125 243.878906 111.078125 243.59375 111.890625 243.347656 C 112.703125 243.101562 113.523438 242.894531 114.355469 242.730469 C 115.1875 242.566406 116.027344 242.441406 116.871094 242.355469 C 117.714844 242.273438 118.5625 242.234375 119.410156 242.234375 C 120.257812 242.234375 121.105469 242.273438 121.949219 242.355469 C 122.792969 242.441406 123.632812 242.566406 124.464844 242.730469 C 125.296875 242.894531 126.117188 243.101562 126.929688 243.347656 C 127.742188 243.59375 128.539062 243.878906 129.324219 244.203125 C 130.105469 244.527344 130.871094 244.890625 131.621094 245.292969 C 132.367188 245.691406 133.097656 246.128906 133.800781 246.597656 C 134.507812 247.070312 135.1875 247.574219 135.84375 248.113281 C 136.5 248.652344 137.125 249.21875 137.726562 249.820312 C 138.328125 250.417969 138.894531 251.046875 139.433594 251.703125 C 139.972656 252.359375 140.476562 253.039062 140.949219 253.746094 C 141.417969 254.449219 141.855469 255.175781 142.253906 255.925781 C 142.65625 256.675781 143.015625 257.441406 143.34375 258.222656 C 143.667969 259.007812 143.953125 259.804688 144.199219 260.617188 C 144.445312 261.429688 144.652344 262.25 144.816406 263.082031 C 144.980469 263.914062 145.105469 264.753906 145.1875 265.597656 C 145.273438 266.441406 145.3125 267.289062 145.3125 268.136719 Z M 145.3125 268.136719 " fill-opacity="1" fill-rule="nonzero"/></g><g clip-path="url(#8666c2d16e)"><path fill="#ff5757" d="M 213.394531 268.136719 C 213.394531 268.984375 213.351562 269.832031 213.269531 270.675781 C 213.1875 271.519531 213.0625 272.359375 212.898438 273.191406 C 212.730469 274.023438 212.527344 274.84375 212.28125 275.65625 C 212.03125 276.46875 211.746094 277.265625 211.421875 278.050781 C 211.097656 278.832031 210.734375 279.601562 210.335938 280.347656 C 209.9375 281.097656 209.5 281.824219 209.027344 282.527344 C 208.558594 283.234375 208.054688 283.914062 207.515625 284.570312 C 206.976562 285.226562 206.40625 285.855469 205.808594 286.453125 C 205.207031 287.054688 204.578125 287.621094 203.925781 288.160156 C 203.269531 288.699219 202.585938 289.203125 201.882812 289.675781 C 201.175781 290.148438 200.449219 290.582031 199.703125 290.984375 C 198.953125 291.382812 198.1875 291.746094 197.402344 292.070312 C 196.621094 292.394531 195.820312 292.679688 195.011719 292.925781 C 194.199219 293.171875 193.375 293.378906 192.542969 293.542969 C 191.710938 293.710938 190.875 293.832031 190.03125 293.917969 C 189.183594 294 188.339844 294.042969 187.492188 294.042969 C 186.640625 294.042969 185.796875 294 184.953125 293.917969 C 184.105469 293.832031 183.269531 293.710938 182.4375 293.542969 C 181.605469 293.378906 180.78125 293.171875 179.972656 292.925781 C 179.160156 292.679688 178.359375 292.394531 177.578125 292.070312 C 176.792969 291.746094 176.027344 291.382812 175.277344 290.984375 C 174.53125 290.582031 173.804688 290.148438 173.097656 289.675781 C 172.394531 289.203125 171.710938 288.699219 171.058594 288.160156 C 170.402344 287.621094 169.773438 287.054688 169.171875 286.453125 C 168.574219 285.855469 168.003906 285.226562 167.464844 284.570312 C 166.929688 283.914062 166.421875 283.234375 165.953125 282.527344 C 165.480469 281.824219 165.042969 281.097656 164.644531 280.347656 C 164.246094 279.601562 163.882812 278.832031 163.558594 278.050781 C 163.234375 277.265625 162.949219 276.46875 162.703125 275.65625 C 162.457031 274.84375 162.25 274.023438 162.082031 273.191406 C 161.917969 272.359375 161.792969 271.519531 161.710938 270.675781 C 161.628906 269.832031 161.585938 268.984375 161.585938 268.136719 C 161.585938 267.289062 161.628906 266.441406 161.710938 265.597656 C 161.792969 264.753906 161.917969 263.914062 162.082031 263.082031 C 162.25 262.25 162.457031 261.429688 162.703125 260.617188 C 162.949219 259.804688 163.234375 259.007812 163.558594 258.222656 C 163.882812 257.441406 164.246094 256.675781 164.644531 255.925781 C 165.042969 255.175781 165.480469 254.449219 165.953125 253.746094 C 166.421875 253.039062 166.929688 252.359375 167.464844 251.703125 C 168.003906 251.046875 168.574219 250.417969 169.171875 249.820312 C 169.773438 249.21875 170.402344 248.652344 171.058594 248.113281 C 171.710938 247.574219 172.394531 247.070312 173.097656 246.597656 C 173.804688 246.128906 174.53125 245.691406 175.277344 245.292969 C 176.027344 244.890625 176.792969 244.527344 177.578125 244.203125 C 178.359375 243.878906 179.160156 243.59375 179.972656 243.347656 C 180.78125 243.101562 181.605469 242.894531 182.4375 242.730469 C 183.269531 242.566406 184.105469 242.441406 184.953125 242.355469 C 185.796875 242.273438 186.640625 242.234375 187.492188 242.234375 C 188.339844 242.234375 189.183594 242.273438 190.03125 242.355469 C 190.875 242.441406 191.710938 242.566406 192.542969 242.730469 C 193.375 242.894531 194.199219 243.101562 195.011719 243.347656 C 195.820312 243.59375 196.621094 243.878906 197.402344 244.203125 C 198.1875 244.527344 198.953125 244.890625 199.703125 245.292969 C 200.449219 245.691406 201.175781 246.128906 201.882812 246.597656 C 202.585938 247.070312 203.269531 247.574219 203.925781 248.113281 C 204.578125 248.652344 205.207031 249.21875 205.808594 249.820312 C 206.40625 250.417969 206.976562 251.046875 207.515625 251.703125 C 208.054688 252.359375 208.558594 253.039062 209.027344 253.746094 C 209.5 254.449219 209.9375 255.175781 210.335938 255.925781 C 210.734375 256.675781 211.097656 257.441406 211.421875 258.222656 C 211.746094 259.007812 212.03125 259.804688 212.28125 260.617188 C 212.527344 261.429688 212.730469 262.25 212.898438 263.082031 C 213.0625 263.914062 213.1875 264.753906 213.269531 265.597656 C 213.351562 266.441406 213.394531 267.289062 213.394531 268.136719 Z M 213.394531 268.136719 " fill-opacity="1" fill-rule="nonzero"/></g><g clip-path="url(#0d871b5990)"><path fill="#ff5757" d="M 281.425781 268.136719 C 281.425781 268.984375 281.386719 269.832031 281.304688 270.675781 C 281.21875 271.519531 281.09375 272.359375 280.929688 273.191406 C 280.765625 274.023438 280.558594 274.84375 280.3125 275.65625 C 280.066406 276.46875 279.78125 277.265625 279.457031 278.050781 C 279.132812 278.832031 278.769531 279.601562 278.367188 280.347656 C 277.96875 281.097656 277.535156 281.824219 277.0625 282.527344 C 276.589844 283.234375 276.085938 283.914062 275.546875 284.570312 C 275.007812 285.226562 274.441406 285.855469 273.839844 286.453125 C 273.242188 287.054688 272.613281 287.621094 271.957031 288.160156 C 271.300781 288.699219 270.621094 289.203125 269.914062 289.675781 C 269.210938 290.148438 268.484375 290.582031 267.734375 290.984375 C 266.984375 291.382812 266.21875 291.746094 265.4375 292.070312 C 264.652344 292.394531 263.855469 292.679688 263.042969 292.925781 C 262.230469 293.171875 261.410156 293.378906 260.578125 293.542969 C 259.746094 293.710938 258.90625 293.832031 258.0625 293.917969 C 257.21875 294 256.371094 294.042969 255.523438 294.042969 C 254.675781 294.042969 253.828125 294 252.984375 293.917969 C 252.140625 293.832031 251.300781 293.710938 250.46875 293.542969 C 249.636719 293.378906 248.816406 293.171875 248.003906 292.925781 C 247.191406 292.679688 246.394531 292.394531 245.609375 292.070312 C 244.828125 291.746094 244.058594 291.382812 243.3125 290.984375 C 242.5625 290.582031 241.835938 290.148438 241.132812 289.675781 C 240.425781 289.203125 239.746094 288.699219 239.089844 288.160156 C 238.433594 287.621094 237.804688 287.054688 237.207031 286.453125 C 236.605469 285.855469 236.039062 285.226562 235.5 284.570312 C 234.960938 283.914062 234.457031 283.234375 233.984375 282.527344 C 233.511719 281.824219 233.078125 281.097656 232.675781 280.347656 C 232.277344 279.601562 231.914062 278.832031 231.589844 278.050781 C 231.265625 277.265625 230.980469 276.46875 230.734375 275.65625 C 230.488281 274.84375 230.28125 274.023438 230.117188 273.191406 C 229.953125 272.359375 229.828125 271.519531 229.742188 270.675781 C 229.660156 269.832031 229.617188 268.984375 229.617188 268.136719 C 229.617188 267.289062 229.660156 266.441406 229.742188 265.597656 C 229.828125 264.753906 229.953125 263.914062 230.117188 263.082031 C 230.28125 262.25 230.488281 261.429688 230.734375 260.617188 C 230.980469 259.804688 231.265625 259.007812 231.589844 258.222656 C 231.914062 257.441406 232.277344 256.675781 232.675781 255.925781 C 233.078125 255.175781 233.511719 254.449219 233.984375 253.746094 C 234.457031 253.039062 234.960938 252.359375 235.5 251.703125 C 236.039062 251.046875 236.605469 250.417969 237.207031 249.820312 C 237.804688 249.21875 238.433594 248.652344 239.089844 248.113281 C 239.746094 247.574219 240.425781 247.070312 241.132812 246.597656 C 241.835938 246.128906 242.5625 245.691406 243.3125 245.292969 C 244.058594 244.890625 244.828125 244.527344 245.609375 244.203125 C 246.394531 243.878906 247.191406 243.59375 248.003906 243.347656 C 248.816406 243.101562 249.636719 242.894531 250.46875 242.730469 C 251.300781 242.566406 252.140625 242.441406 252.984375 242.355469 C 253.828125 242.273438 254.675781 242.234375 255.523438 242.234375 C 256.371094 242.234375 257.21875 242.273438 258.0625 242.355469 C 258.90625 242.441406 259.746094 242.566406 260.578125 242.730469 C 261.410156 242.894531 262.230469 243.101562 263.042969 243.347656 C 263.855469 243.59375 264.652344 243.878906 265.4375 244.203125 C 266.21875 244.527344 266.984375 244.890625 267.734375 245.292969 C 268.484375 245.691406 269.210938 246.128906 269.914062 246.597656 C 270.621094 247.070312 271.300781 247.574219 271.957031 248.113281 C 272.613281 248.652344 273.242188 249.21875 273.839844 249.820312 C 274.441406 250.417969 275.007812 251.046875 275.546875 251.703125 C 276.085938 252.359375 276.589844 253.039062 277.0625 253.746094 C 277.535156 254.449219 277.96875 255.175781 278.367188 255.925781 C 278.769531 256.675781 279.132812 257.441406 279.457031 258.222656 C 279.78125 259.007812 280.066406 259.804688 280.3125 260.617188 C 280.558594 261.429688 280.765625 262.25 280.929688 263.082031 C 281.09375 263.914062 281.21875 264.753906 281.304688 265.597656 C 281.386719 266.441406 281.425781 267.289062 281.425781 268.136719 Z M 281.425781 268.136719 " fill-opacity="1" fill-rule="nonzero"/></g></svg>