<svg xmlns="http://www.w3.org/2000/svg" xmlns:xlink="http://www.w3.org/1999/xlink" width="500" zoomAndPan="magnify" viewBox="0 0 375 374.999991" height="500" preserveAspectRatio="xMidYMid meet" version="1.0"><defs><clipPath id="2b782e840c"><path d="M 27.835938 189.234375 L 255 189.234375 L 255 302.484375 L 27.835938 302.484375 Z M 27.835938 189.234375 " clip-rule="nonzero"/></clipPath><clipPath id="228b3e40ba"><path d="M 45.085938 189.234375 L 237.539062 189.234375 C 247.066406 189.234375 254.789062 196.957031 254.789062 206.484375 L 254.789062 285.234375 C 254.789062 294.761719 247.066406 302.484375 237.539062 302.484375 L 45.085938 302.484375 C 35.558594 302.484375 27.835938 294.761719 27.835938 285.234375 L 27.835938 206.484375 C 27.835938 196.957031 35.558594 189.234375 45.085938 189.234375 Z M 45.085938 189.234375 " clip-rule="nonzero"/></clipPath><clipPath id="52ff72e03f"><path d="M 84.6875 52.863281 L 197.9375 52.863281 L 197.9375 166.113281 L 84.6875 166.113281 Z M 84.6875 52.863281 " clip-rule="nonzero"/></clipPath><clipPath id="1ccdf974c0"><path d="M 101.9375 52.863281 L 180.6875 52.863281 C 190.210938 52.863281 197.9375 60.585938 197.9375 70.113281 L 197.9375 148.863281 C 197.9375 158.390625 190.210938 166.113281 180.6875 166.113281 L 101.9375 166.113281 C 92.410156 166.113281 84.6875 158.390625 84.6875 148.863281 L 84.6875 70.113281 C 84.6875 60.585938 92.410156 52.863281 101.9375 52.863281 Z M 101.9375 52.863281 " clip-rule="nonzero"/></clipPath><clipPath id="0b85ac6706"><path d="M 55.953125 189.234375 L 283 189.234375 L 283 302.484375 L 55.953125 302.484375 Z M 55.953125 189.234375 " clip-rule="nonzero"/></clipPath><clipPath id="d0f1b05e29"><path d="M 73.203125 189.234375 L 265.65625 189.234375 C 275.183594 189.234375 282.90625 196.957031 282.90625 206.484375 L 282.90625 285.234375 C 282.90625 294.761719 275.183594 302.484375 265.65625 302.484375 L 73.203125 302.484375 C 63.675781 302.484375 55.953125 294.761719 55.953125 285.234375 L 55.953125 206.484375 C 55.953125 196.957031 63.675781 189.234375 73.203125 189.234375 Z M 73.203125 189.234375 " clip-rule="nonzero"/></clipPath><clipPath id="82ae21cf73"><path d="M 112.804688 52.863281 L 226.054688 52.863281 L 226.054688 166.113281 L 112.804688 166.113281 Z M 112.804688 52.863281 " clip-rule="nonzero"/></clipPath><clipPath id="e914d397c5"><path d="M 130.054688 52.863281 L 208.804688 52.863281 C 218.332031 52.863281 226.054688 60.585938 226.054688 70.113281 L 226.054688 148.863281 C 226.054688 158.390625 218.332031 166.113281 208.804688 166.113281 L 130.054688 166.113281 C 120.527344 166.113281 112.804688 158.390625 112.804688 148.863281 L 112.804688 70.113281 C 112.804688 60.585938 120.527344 52.863281 130.054688 52.863281 Z M 130.054688 52.863281 " clip-rule="nonzero"/></clipPath><clipPath id="3c10e20626"><path d="M 236.234375 238.433594 L 335.234375 238.433594 L 335.234375 337.433594 L 236.234375 337.433594 Z M 236.234375 238.433594 " clip-rule="nonzero"/></clipPath><clipPath id="8dff529d09"><path d="M 256.371094 258.574219 L 315.164062 258.574219 L 315.164062 317.363281 L 256.371094 317.363281 Z M 256.371094 258.574219 " clip-rule="nonzero"/></clipPath><clipPath id="5591639c0a"><path d="M 285.769531 258.574219 C 269.535156 258.574219 256.371094 271.734375 256.371094 287.96875 C 256.371094 304.203125 269.535156 317.363281 285.769531 317.363281 C 302.003906 317.363281 315.164062 304.203125 315.164062 287.96875 C 315.164062 271.734375 302.003906 258.574219 285.769531 258.574219 Z M 285.769531 258.574219 " clip-rule="nonzero"/></clipPath><clipPath id="f54ec03978"><path d="M 248.101562 238.433594 L 347.101562 238.433594 L 347.101562 337.433594 L 248.101562 337.433594 Z M 248.101562 238.433594 " clip-rule="nonzero"/></clipPath><clipPath id="ddc7ccf0f4"><path d="M 268.238281 258.574219 L 327.027344 258.574219 L 327.027344 317.363281 L 268.238281 317.363281 Z M 268.238281 258.574219 " clip-rule="nonzero"/></clipPath><clipPath id="776427c2b4"><path d="M 297.632812 258.574219 C 281.398438 258.574219 268.238281 271.734375 268.238281 287.96875 C 268.238281 304.203125 281.398438 317.363281 297.632812 317.363281 C 313.867188 317.363281 327.027344 304.203125 327.027344 287.96875 C 327.027344 271.734375 313.867188 258.574219 297.632812 258.574219 Z M 297.632812 258.574219 " clip-rule="nonzero"/></clipPath></defs><g clip-path="url(#2b782e840c)"><g clip-path="url(#228b3e40ba)"><path fill="#ff5757" d="M 27.835938 189.234375 L 254.773438 189.234375 L 254.773438 302.484375 L 27.835938 302.484375 Z M 27.835938 189.234375 " fill-opacity="1" fill-rule="nonzero"/></g></g><g clip-path="url(#52ff72e03f)"><g clip-path="url(#1ccdf974c0)"><path fill="#ff5757" d="M 84.6875 52.863281 L 197.9375 52.863281 L 197.9375 166.113281 L 84.6875 166.113281 Z M 84.6875 52.863281 " fill-opacity="1" fill-rule="nonzero"/></g></g><g clip-path="url(#0b85ac6706)"><g clip-path="url(#d0f1b05e29)"><path fill="#f00b51" d="M 55.953125 189.234375 L 282.894531 189.234375 L 282.894531 302.484375 L 55.953125 302.484375 Z M 55.953125 189.234375 " fill-opacity="1" fill-rule="nonzero"/></g></g><g clip-path="url(#82ae21cf73)"><g clip-path="url(#e914d397c5)"><path fill="#f00b51" d="M 112.804688 52.863281 L 226.054688 52.863281 L 226.054688 166.113281 L 112.804688 166.113281 Z M 112.804688 52.863281 " fill-opacity="1" fill-rule="nonzero"/></g></g><g clip-path="url(#3c10e20626)"><path fill="#ff5757" d="M 285.765625 308.390625 C 274.484375 308.390625 265.335938 299.246094 265.335938 287.964844 C 265.335938 276.683594 274.484375 267.539062 285.765625 267.539062 C 297.046875 267.539062 306.191406 276.683594 306.191406 287.964844 C 306.191406 299.246094 297.046875 308.390625 285.765625 308.390625 Z M 332.621094 278.414062 L 323.472656 277.332031 C 322.648438 274.394531 321.476562 271.53125 319.953125 268.816406 L 325.648438 261.585938 C 326.601562 260.378906 326.5 258.652344 325.414062 257.570312 L 316.160156 248.316406 C 315.074219 247.230469 313.347656 247.128906 312.144531 248.078125 L 304.914062 253.777344 C 302.195312 252.253906 299.335938 251.082031 296.398438 250.253906 L 295.316406 241.109375 C 295.136719 239.585938 293.84375 238.433594 292.304688 238.433594 L 279.222656 238.433594 C 277.6875 238.433594 276.394531 239.585938 276.214844 241.109375 L 275.132812 250.253906 C 272.191406 251.082031 269.332031 252.253906 266.617188 253.777344 L 259.386719 248.078125 C 258.179688 247.128906 256.453125 247.230469 255.367188 248.316406 L 246.117188 257.570312 C 245.03125 258.652344 244.929688 260.378906 245.878906 261.585938 L 251.578125 268.816406 C 250.054688 271.53125 248.878906 274.394531 248.054688 277.332031 L 238.910156 278.414062 C 237.382812 278.59375 236.234375 279.886719 236.234375 281.421875 L 236.234375 294.507812 C 236.234375 296.042969 237.382812 297.335938 238.910156 297.515625 L 248.054688 298.597656 C 248.878906 301.535156 250.054688 304.398438 251.578125 307.113281 L 245.878906 314.34375 C 244.929688 315.550781 245.03125 317.277344 246.117188 318.359375 L 255.367188 327.613281 C 256.453125 328.699219 258.179688 328.800781 259.386719 327.851562 L 266.617188 322.152344 C 269.332031 323.675781 272.191406 324.847656 275.132812 325.675781 L 276.214844 334.820312 C 276.394531 336.34375 277.6875 337.492188 279.222656 337.492188 L 292.089844 337.492188 C 293.597656 337.492188 294.875 336.382812 295.089844 334.890625 L 296.398438 325.675781 C 299.335938 324.847656 302.195312 323.675781 304.914062 322.152344 L 312.144531 327.851562 C 313.347656 328.800781 315.074219 328.699219 316.160156 327.613281 L 325.414062 318.359375 C 326.5 317.277344 326.601562 315.550781 325.648438 314.34375 L 319.953125 307.113281 C 321.476562 304.398438 322.648438 301.535156 323.472656 298.597656 L 332.621094 297.515625 C 334.144531 297.335938 335.292969 296.042969 335.292969 294.507812 L 335.292969 281.421875 C 335.292969 279.886719 334.144531 278.59375 332.621094 278.414062 " fill-opacity="1" fill-rule="nonzero"/></g><g clip-path="url(#8dff529d09)"><g clip-path="url(#5591639c0a)"><path fill="#ff5757" d="M 256.371094 258.574219 L 315.164062 258.574219 L 315.164062 317.363281 L 256.371094 317.363281 Z M 256.371094 258.574219 " fill-opacity="1" fill-rule="nonzero"/></g></g><g clip-path="url(#f54ec03978)"><path fill="#f00b51" d="M 297.628906 308.390625 C 286.347656 308.390625 277.203125 299.246094 277.203125 287.964844 C 277.203125 276.683594 286.347656 267.539062 297.628906 267.539062 C 308.914062 267.539062 318.058594 276.683594 318.058594 287.964844 C 318.058594 299.246094 308.914062 308.390625 297.628906 308.390625 Z M 344.484375 278.414062 L 335.339844 277.332031 C 334.515625 274.394531 333.34375 271.53125 331.816406 268.816406 L 337.515625 261.585938 C 338.46875 260.378906 338.363281 258.652344 337.277344 257.570312 L 328.027344 248.316406 C 326.941406 247.230469 325.214844 247.128906 324.007812 248.078125 L 316.78125 253.777344 C 314.0625 252.253906 311.203125 251.082031 308.265625 250.253906 L 307.183594 241.109375 C 307 239.585938 305.707031 238.433594 304.171875 238.433594 L 291.089844 238.433594 C 289.554688 238.433594 288.261719 239.585938 288.082031 241.109375 L 286.996094 250.253906 C 284.058594 251.082031 281.199219 252.253906 278.480469 253.777344 L 271.253906 248.078125 C 270.046875 247.128906 268.320312 247.230469 267.234375 248.316406 L 257.984375 257.570312 C 256.898438 258.652344 256.792969 260.378906 257.746094 261.585938 L 263.445312 268.816406 C 261.917969 271.53125 260.746094 274.394531 259.921875 277.332031 L 250.773438 278.414062 C 249.25 278.59375 248.101562 279.886719 248.101562 281.421875 L 248.101562 294.507812 C 248.101562 296.042969 249.25 297.335938 250.773438 297.515625 L 259.921875 298.597656 C 260.746094 301.535156 261.917969 304.398438 263.445312 307.113281 L 257.746094 314.34375 C 256.792969 315.550781 256.898438 317.277344 257.984375 318.359375 L 267.234375 327.613281 C 268.320312 328.699219 270.046875 328.800781 271.253906 327.851562 L 278.480469 322.152344 C 281.199219 323.675781 284.058594 324.847656 286.996094 325.675781 L 288.082031 334.820312 C 288.261719 336.34375 289.554688 337.492188 291.089844 337.492188 L 303.957031 337.492188 C 305.464844 337.492188 306.742188 336.382812 306.957031 334.890625 L 308.265625 325.675781 C 311.203125 324.847656 314.0625 323.675781 316.78125 322.152344 L 324.007812 327.851562 C 325.214844 328.800781 326.941406 328.699219 328.027344 327.613281 L 337.277344 318.359375 C 338.363281 317.277344 338.46875 315.550781 337.515625 314.34375 L 331.816406 307.113281 C 333.34375 304.398438 334.515625 301.535156 335.339844 298.597656 L 344.484375 297.515625 C 346.011719 297.335938 347.160156 296.042969 347.160156 294.507812 L 347.160156 281.421875 C 347.160156 279.886719 346.011719 278.59375 344.484375 278.414062 " fill-opacity="1" fill-rule="nonzero"/></g><g clip-path="url(#ddc7ccf0f4)"><g clip-path="url(#776427c2b4)"><path fill="#f00b51" d="M 268.238281 258.574219 L 327.027344 258.574219 L 327.027344 317.363281 L 268.238281 317.363281 Z M 268.238281 258.574219 " fill-opacity="1" fill-rule="nonzero"/></g></g></svg>