<svg xmlns="http://www.w3.org/2000/svg" xmlns:xlink="http://www.w3.org/1999/xlink" width="500" zoomAndPan="magnify" viewBox="0 0 375 374.999991" height="500" preserveAspectRatio="xMidYMid meet" version="1.0"><defs><clipPath id="8b42e6ef48"><path d="M 69.484375 125.601562 L 306 125.601562 L 306 337.5 L 69.484375 337.5 Z M 69.484375 125.601562 " clip-rule="nonzero"/></clipPath><clipPath id="80923582ed"><path d="M 86.734375 125.601562 L 288.265625 125.601562 C 292.839844 125.601562 297.226562 127.421875 300.460938 130.65625 C 303.699219 133.890625 305.515625 138.277344 305.515625 142.851562 L 305.515625 320.25 C 305.515625 324.824219 303.699219 329.210938 300.460938 332.449219 C 297.226562 335.683594 292.839844 337.5 288.265625 337.5 L 86.734375 337.5 C 82.160156 337.5 77.773438 335.683594 74.539062 332.449219 C 71.300781 329.210938 69.484375 324.824219 69.484375 320.25 L 69.484375 142.851562 C 69.484375 138.277344 71.300781 133.890625 74.539062 130.65625 C 77.773438 127.421875 82.160156 125.601562 86.734375 125.601562 Z M 86.734375 125.601562 " clip-rule="nonzero"/></clipPath><clipPath id="e386a0044b"><path d="M 69.484375 45.640625 L 129.59375 45.640625 L 129.59375 158.347656 L 69.484375 158.347656 Z M 69.484375 45.640625 " clip-rule="nonzero"/></clipPath><clipPath id="c8b3881d6f"><path d="M 86.734375 45.640625 L 112.34375 45.640625 C 116.921875 45.640625 121.308594 47.457031 124.542969 50.691406 C 127.777344 53.925781 129.59375 58.316406 129.59375 62.890625 L 129.59375 140.890625 C 129.59375 145.464844 127.777344 149.851562 124.542969 153.085938 C 121.308594 156.324219 116.921875 158.140625 112.34375 158.140625 L 86.734375 158.140625 C 82.160156 158.140625 77.773438 156.324219 74.539062 153.085938 C 71.300781 149.851562 69.484375 145.464844 69.484375 140.890625 L 69.484375 62.890625 C 69.484375 58.316406 71.300781 53.925781 74.539062 50.691406 C 77.773438 47.457031 82.160156 45.640625 86.734375 45.640625 Z M 86.734375 45.640625 " clip-rule="nonzero"/></clipPath><clipPath id="aa27da63fc"><path d="M 245.40625 45.640625 L 305.515625 45.640625 L 305.515625 158.347656 L 245.40625 158.347656 Z M 245.40625 45.640625 " clip-rule="nonzero"/></clipPath><clipPath id="9aeac8ad82"><path d="M 262.65625 45.640625 L 288.265625 45.640625 C 292.839844 45.640625 297.226562 47.457031 300.460938 50.691406 C 303.699219 53.925781 305.515625 58.316406 305.515625 62.890625 L 305.515625 140.890625 C 305.515625 145.464844 303.699219 149.851562 300.460938 153.085938 C 297.226562 156.324219 292.839844 158.140625 288.265625 158.140625 L 262.65625 158.140625 C 258.078125 158.140625 253.691406 156.324219 250.457031 153.085938 C 247.222656 149.851562 245.40625 145.464844 245.40625 140.890625 L 245.40625 62.890625 C 245.40625 58.316406 247.222656 53.925781 250.457031 50.691406 C 253.691406 47.457031 258.078125 45.640625 262.65625 45.640625 Z M 262.65625 45.640625 " clip-rule="nonzero"/></clipPath><clipPath id="1a41a006cc"><path d="M 157.445312 45.640625 L 217.554688 45.640625 L 217.554688 158.347656 L 157.445312 158.347656 Z M 157.445312 45.640625 " clip-rule="nonzero"/></clipPath><clipPath id="50026b2d76"><path d="M 174.695312 45.640625 L 200.304688 45.640625 C 204.878906 45.640625 209.269531 47.457031 212.503906 50.691406 C 215.738281 53.925781 217.554688 58.316406 217.554688 62.890625 L 217.554688 140.890625 C 217.554688 145.464844 215.738281 149.851562 212.503906 153.085938 C 209.269531 156.324219 204.878906 158.140625 200.304688 158.140625 L 174.695312 158.140625 C 170.121094 158.140625 165.730469 156.324219 162.496094 153.085938 C 159.261719 149.851562 157.445312 145.464844 157.445312 140.890625 L 157.445312 62.890625 C 157.445312 58.316406 159.261719 53.925781 162.496094 50.691406 C 165.730469 47.457031 170.121094 45.640625 174.695312 45.640625 Z M 174.695312 45.640625 " clip-rule="nonzero"/></clipPath><clipPath id="4dcf4cc810"><path d="M 87.550781 125.601562 L 324 125.601562 L 324 337.5 L 87.550781 337.5 Z M 87.550781 125.601562 " clip-rule="nonzero"/></clipPath><clipPath id="46b2aa33b0"><path d="M 104.800781 125.601562 L 306.332031 125.601562 C 310.90625 125.601562 315.292969 127.421875 318.527344 130.65625 C 321.761719 133.890625 323.582031 138.277344 323.582031 142.851562 L 323.582031 320.25 C 323.582031 324.824219 321.761719 329.210938 318.527344 332.449219 C 315.292969 335.683594 310.90625 337.5 306.332031 337.5 L 104.800781 337.5 C 100.226562 337.5 95.839844 335.683594 92.605469 332.449219 C 89.367188 329.210938 87.550781 324.824219 87.550781 320.25 L 87.550781 142.851562 C 87.550781 138.277344 89.367188 133.890625 92.605469 130.65625 C 95.839844 127.421875 100.226562 125.601562 104.800781 125.601562 Z M 104.800781 125.601562 " clip-rule="nonzero"/></clipPath><clipPath id="c736446845"><path d="M 87.550781 45.640625 L 147.660156 45.640625 L 147.660156 158.347656 L 87.550781 158.347656 Z M 87.550781 45.640625 " clip-rule="nonzero"/></clipPath><clipPath id="6d60fa611c"><path d="M 104.800781 45.640625 L 130.410156 45.640625 C 134.988281 45.640625 139.375 47.457031 142.609375 50.691406 C 145.84375 53.925781 147.660156 58.316406 147.660156 62.890625 L 147.660156 140.890625 C 147.660156 145.464844 145.84375 149.851562 142.609375 153.085938 C 139.375 156.324219 134.988281 158.140625 130.410156 158.140625 L 104.800781 158.140625 C 100.226562 158.140625 95.839844 156.324219 92.605469 153.085938 C 89.367188 149.851562 87.550781 145.464844 87.550781 140.890625 L 87.550781 62.890625 C 87.550781 58.316406 89.367188 53.925781 92.605469 50.691406 C 95.839844 47.457031 100.226562 45.640625 104.800781 45.640625 Z M 104.800781 45.640625 " clip-rule="nonzero"/></clipPath><clipPath id="1f4f7d9b2d"><path d="M 263.46875 45.640625 L 323.582031 45.640625 L 323.582031 158.347656 L 263.46875 158.347656 Z M 263.46875 45.640625 " clip-rule="nonzero"/></clipPath><clipPath id="f548ba8154"><path d="M 280.71875 45.640625 L 306.332031 45.640625 C 310.90625 45.640625 315.292969 47.457031 318.527344 50.691406 C 321.761719 53.925781 323.582031 58.316406 323.582031 62.890625 L 323.582031 140.890625 C 323.582031 145.464844 321.761719 149.851562 318.527344 153.085938 C 315.292969 156.324219 310.90625 158.140625 306.332031 158.140625 L 280.71875 158.140625 C 276.144531 158.140625 271.757812 156.324219 268.523438 153.085938 C 265.289062 149.851562 263.46875 145.464844 263.46875 140.890625 L 263.46875 62.890625 C 263.46875 58.316406 265.289062 53.925781 268.523438 50.691406 C 271.757812 47.457031 276.144531 45.640625 280.71875 45.640625 Z M 280.71875 45.640625 " clip-rule="nonzero"/></clipPath><clipPath id="a5290bd007"><path d="M 175.511719 45.640625 L 235.621094 45.640625 L 235.621094 158.347656 L 175.511719 158.347656 Z M 175.511719 45.640625 " clip-rule="nonzero"/></clipPath><clipPath id="9f40f5dd50"><path d="M 192.761719 45.640625 L 218.371094 45.640625 C 222.945312 45.640625 227.332031 47.457031 230.570312 50.691406 C 233.804688 53.925781 235.621094 58.316406 235.621094 62.890625 L 235.621094 140.890625 C 235.621094 145.464844 233.804688 149.851562 230.570312 153.085938 C 227.332031 156.324219 222.945312 158.140625 218.371094 158.140625 L 192.761719 158.140625 C 188.1875 158.140625 183.796875 156.324219 180.5625 153.085938 C 177.328125 149.851562 175.511719 145.464844 175.511719 140.890625 L 175.511719 62.890625 C 175.511719 58.316406 177.328125 53.925781 180.5625 50.691406 C 183.796875 47.457031 188.1875 45.640625 192.761719 45.640625 Z M 192.761719 45.640625 " clip-rule="nonzero"/></clipPath></defs><g clip-path="url(#8b42e6ef48)"><g clip-path="url(#80923582ed)"><path fill="#ff5757" d="M 69.484375 125.601562 L 305.386719 125.601562 L 305.386719 337.5 L 69.484375 337.5 Z M 69.484375 125.601562 " fill-opacity="1" fill-rule="nonzero"/></g></g><g clip-path="url(#e386a0044b)"><g clip-path="url(#c8b3881d6f)"><path fill="#ff5757" d="M 69.484375 45.640625 L 129.59375 45.640625 L 129.59375 158.113281 L 69.484375 158.113281 Z M 69.484375 45.640625 " fill-opacity="1" fill-rule="nonzero"/></g></g><g clip-path="url(#aa27da63fc)"><g clip-path="url(#9aeac8ad82)"><path fill="#ff5757" d="M 245.40625 45.640625 L 305.515625 45.640625 L 305.515625 158.113281 L 245.40625 158.113281 Z M 245.40625 45.640625 " fill-opacity="1" fill-rule="nonzero"/></g></g><g clip-path="url(#1a41a006cc)"><g clip-path="url(#50026b2d76)"><path fill="#ff5757" d="M 157.445312 45.640625 L 217.554688 45.640625 L 217.554688 158.113281 L 157.445312 158.113281 Z M 157.445312 45.640625 " fill-opacity="1" fill-rule="nonzero"/></g></g><g clip-path="url(#4dcf4cc810)"><g clip-path="url(#46b2aa33b0)"><path fill="#f00b51" d="M 87.550781 125.601562 L 323.453125 125.601562 L 323.453125 337.5 L 87.550781 337.5 Z M 87.550781 125.601562 " fill-opacity="1" fill-rule="nonzero"/></g></g><g clip-path="url(#c736446845)"><g clip-path="url(#6d60fa611c)"><path fill="#f00b51" d="M 87.550781 45.640625 L 147.660156 45.640625 L 147.660156 158.113281 L 87.550781 158.113281 Z M 87.550781 45.640625 " fill-opacity="1" fill-rule="nonzero"/></g></g><g clip-path="url(#1f4f7d9b2d)"><g clip-path="url(#f548ba8154)"><path fill="#f00b51" d="M 263.46875 45.640625 L 323.582031 45.640625 L 323.582031 158.113281 L 263.46875 158.113281 Z M 263.46875 45.640625 " fill-opacity="1" fill-rule="nonzero"/></g></g><g clip-path="url(#a5290bd007)"><g clip-path="url(#9f40f5dd50)"><path fill="#f00b51" d="M 175.511719 45.640625 L 235.621094 45.640625 L 235.621094 158.113281 L 175.511719 158.113281 Z M 175.511719 45.640625 " fill-opacity="1" fill-rule="nonzero"/></g></g></svg>