<svg xmlns="http://www.w3.org/2000/svg" xmlns:xlink="http://www.w3.org/1999/xlink" width="500" zoomAndPan="magnify" viewBox="0 0 375 374.999991" height="500" preserveAspectRatio="xMidYMid meet" version="1.0"><defs><clipPath id="dfd3b18190"><path d="M 57 111 L 315 111 L 315 368 L 57 368 Z M 57 111 " clip-rule="nonzero"/></clipPath><clipPath id="0329fb1972"><path d="M 50.699219 239.566406 L 186.132812 104.132812 L 321.5625 239.566406 L 186.132812 374.996094 Z M 50.699219 239.566406 " clip-rule="nonzero"/></clipPath><clipPath id="add35703ff"><path d="M 62.898438 227.367188 L 173.933594 116.332031 C 177.167969 113.097656 181.554688 111.28125 186.132812 111.28125 C 190.707031 111.28125 195.09375 113.097656 198.328125 116.332031 L 309.363281 227.367188 C 312.597656 230.601562 314.417969 234.988281 314.417969 239.566406 C 314.417969 244.140625 312.597656 248.527344 309.363281 251.761719 L 198.328125 362.796875 C 195.09375 366.03125 190.707031 367.851562 186.132812 367.851562 C 181.554688 367.851562 177.167969 366.03125 173.933594 362.796875 L 62.898438 251.761719 C 59.664062 248.527344 57.847656 244.140625 57.847656 239.566406 C 57.847656 234.988281 59.664062 230.601562 62.898438 227.367188 Z M 62.898438 227.367188 " clip-rule="nonzero"/></clipPath><clipPath id="7d69bc9046"><path d="M 37 42 L 160 42 L 160 166 L 37 166 Z M 37 42 " clip-rule="nonzero"/></clipPath><clipPath id="5507d34d14"><path d="M 30.144531 104.136719 L 98.480469 35.800781 L 166.816406 104.136719 L 98.480469 172.46875 Z M 30.144531 104.136719 " clip-rule="nonzero"/></clipPath><clipPath id="ea68924b59"><path d="M 42.34375 91.9375 L 86.28125 47.996094 C 89.519531 44.761719 93.90625 42.945312 98.480469 42.945312 C 103.054688 42.945312 107.441406 44.761719 110.679688 47.996094 L 154.617188 91.9375 C 157.851562 95.171875 159.671875 99.558594 159.671875 104.136719 C 159.671875 108.710938 157.851562 113.097656 154.617188 116.332031 L 110.679688 160.273438 C 107.441406 163.507812 103.054688 165.324219 98.480469 165.324219 C 93.90625 165.324219 89.519531 163.507812 86.28125 160.273438 L 42.34375 116.332031 C 39.109375 113.097656 37.289062 108.710938 37.289062 104.136719 C 37.289062 99.558594 39.109375 95.171875 42.34375 91.9375 Z M 42.34375 91.9375 " clip-rule="nonzero"/></clipPath><clipPath id="d2513ffc7f"><path d="M 173 7 L 232 7 L 232 65 L 173 65 Z M 173 7 " clip-rule="nonzero"/></clipPath><clipPath id="cc0d945c88"><path d="M 166.816406 35.800781 L 202.621094 -0.00390625 L 238.421875 35.800781 L 202.621094 71.601562 Z M 166.816406 35.800781 " clip-rule="nonzero"/></clipPath><clipPath id="772d22828b"><path d="M 179.011719 23.601562 L 190.421875 12.191406 C 193.65625 8.957031 198.042969 7.140625 202.621094 7.140625 C 207.195312 7.140625 211.582031 8.957031 214.816406 12.191406 L 226.226562 23.601562 C 229.460938 26.835938 231.277344 31.222656 231.277344 35.800781 C 231.277344 40.375 229.460938 44.761719 226.226562 47.996094 L 214.816406 59.40625 C 211.582031 62.640625 207.195312 64.457031 202.621094 64.457031 C 198.042969 64.457031 193.65625 62.640625 190.421875 59.40625 L 179.011719 47.996094 C 175.777344 44.761719 173.960938 40.375 173.960938 35.800781 C 173.960938 31.222656 175.777344 26.835938 179.011719 23.601562 Z M 179.011719 23.601562 " clip-rule="nonzero"/></clipPath><clipPath id="c4996912af"><path d="M 81 111 L 338 111 L 338 368 L 81 368 Z M 81 111 " clip-rule="nonzero"/></clipPath><clipPath id="fd9fc13d91"><path d="M 73.996094 239.566406 L 209.425781 104.132812 L 344.859375 239.566406 L 209.425781 374.996094 Z M 73.996094 239.566406 " clip-rule="nonzero"/></clipPath><clipPath id="443999134e"><path d="M 86.195312 227.367188 L 197.230469 116.332031 C 200.464844 113.097656 204.851562 111.28125 209.425781 111.28125 C 214 111.28125 218.390625 113.097656 221.625 116.332031 L 332.660156 227.367188 C 335.894531 230.601562 337.710938 234.988281 337.710938 239.566406 C 337.710938 244.140625 335.894531 248.527344 332.660156 251.761719 L 221.625 362.796875 C 218.390625 366.03125 214 367.851562 209.425781 367.851562 C 204.851562 367.851562 200.464844 366.03125 197.230469 362.796875 L 86.195312 251.761719 C 82.957031 248.527344 81.140625 244.140625 81.140625 239.566406 C 81.140625 234.988281 82.957031 230.601562 86.195312 227.367188 Z M 86.195312 227.367188 " clip-rule="nonzero"/></clipPath><clipPath id="83cb627de1"><path d="M 60 42 L 183 42 L 183 166 L 60 166 Z M 60 42 " clip-rule="nonzero"/></clipPath><clipPath id="9063b126ea"><path d="M 53.441406 104.136719 L 121.777344 35.800781 L 190.109375 104.136719 L 121.777344 172.46875 Z M 53.441406 104.136719 " clip-rule="nonzero"/></clipPath><clipPath id="a797eb36c8"><path d="M 65.640625 91.9375 L 109.578125 47.996094 C 112.8125 44.761719 117.203125 42.945312 121.777344 42.945312 C 126.351562 42.945312 130.738281 44.761719 133.972656 47.996094 L 177.914062 91.9375 C 181.148438 95.171875 182.964844 99.558594 182.964844 104.136719 C 182.964844 108.710938 181.148438 113.097656 177.914062 116.332031 L 133.972656 160.273438 C 130.738281 163.507812 126.351562 165.324219 121.777344 165.324219 C 117.203125 165.324219 112.8125 163.507812 109.578125 160.273438 L 65.640625 116.332031 C 62.402344 113.097656 60.585938 108.710938 60.585938 104.136719 C 60.585938 99.558594 62.402344 95.171875 65.640625 91.9375 Z M 65.640625 91.9375 " clip-rule="nonzero"/></clipPath><clipPath id="1aa11a3cfa"><path d="M 197 7 L 255 7 L 255 65 L 197 65 Z M 197 7 " clip-rule="nonzero"/></clipPath><clipPath id="ee060f1b3c"><path d="M 190.113281 35.800781 L 225.914062 -0.00390625 L 261.71875 35.800781 L 225.914062 71.601562 Z M 190.113281 35.800781 " clip-rule="nonzero"/></clipPath><clipPath id="9e2080af7c"><path d="M 202.308594 23.601562 L 213.71875 12.191406 C 216.953125 8.957031 221.339844 7.140625 225.914062 7.140625 C 230.488281 7.140625 234.878906 8.957031 238.113281 12.191406 L 249.519531 23.601562 C 252.757812 26.835938 254.574219 31.222656 254.574219 35.800781 C 254.574219 40.375 252.757812 44.761719 249.519531 47.996094 L 238.113281 59.40625 C 234.878906 62.640625 230.488281 64.457031 225.914062 64.457031 C 221.339844 64.457031 216.953125 62.640625 213.71875 59.40625 L 202.308594 47.996094 C 199.074219 44.761719 197.257812 40.375 197.257812 35.800781 C 197.257812 31.222656 199.074219 26.835938 202.308594 23.601562 Z M 202.308594 23.601562 " clip-rule="nonzero"/></clipPath></defs><g clip-path="url(#dfd3b18190)"><g clip-path="url(#0329fb1972)"><g clip-path="url(#add35703ff)"><path fill="#ff5757" d="M 50.699219 239.566406 L 186.132812 104.132812 L 321.5625 239.566406 L 186.132812 374.996094 Z M 50.699219 239.566406 " fill-opacity="1" fill-rule="nonzero"/></g></g></g><g clip-path="url(#7d69bc9046)"><g clip-path="url(#5507d34d14)"><g clip-path="url(#ea68924b59)"><path fill="#ff5757" d="M 30.144531 104.136719 L 98.480469 35.800781 L 166.816406 104.136719 L 98.480469 172.46875 Z M 30.144531 104.136719 " fill-opacity="1" fill-rule="nonzero"/></g></g></g><g clip-path="url(#d2513ffc7f)"><g clip-path="url(#cc0d945c88)"><g clip-path="url(#772d22828b)"><path fill="#ff5757" d="M 166.816406 35.800781 L 202.621094 -0.00390625 L 238.421875 35.800781 L 202.621094 71.601562 Z M 166.816406 35.800781 " fill-opacity="1" fill-rule="nonzero"/></g></g></g><g clip-path="url(#c4996912af)"><g clip-path="url(#fd9fc13d91)"><g clip-path="url(#443999134e)"><path fill="#f00b51" d="M 73.996094 239.566406 L 209.425781 104.132812 L 344.859375 239.566406 L 209.425781 374.996094 Z M 73.996094 239.566406 " fill-opacity="1" fill-rule="nonzero"/></g></g></g><g clip-path="url(#83cb627de1)"><g clip-path="url(#9063b126ea)"><g clip-path="url(#a797eb36c8)"><path fill="#f00b51" d="M 53.441406 104.136719 L 121.777344 35.800781 L 190.109375 104.136719 L 121.777344 172.46875 Z M 53.441406 104.136719 " fill-opacity="1" fill-rule="nonzero"/></g></g></g><g clip-path="url(#1aa11a3cfa)"><g clip-path="url(#ee060f1b3c)"><g clip-path="url(#9e2080af7c)"><path fill="#f00b51" d="M 190.113281 35.800781 L 225.914062 -0.00390625 L 261.71875 35.800781 L 225.914062 71.601562 Z M 190.113281 35.800781 " fill-opacity="1" fill-rule="nonzero"/></g></g></g></svg>