<svg xmlns="http://www.w3.org/2000/svg" xmlns:xlink="http://www.w3.org/1999/xlink" width="500" zoomAndPan="magnify" viewBox="0 0 375 374.999991" height="500" preserveAspectRatio="xMidYMid meet" version="1.0"><defs><clipPath id="321bbd2541"><path d="M 63.34375 170.625 L 284.246094 170.625 L 284.246094 339.4375 L 63.34375 339.4375 Z M 63.34375 170.625 " clip-rule="nonzero"/></clipPath><clipPath id="3ffd24eaaf"><path d="M 80.59375 170.625 L 266.855469 170.625 C 271.429688 170.625 275.816406 172.441406 279.050781 175.679688 C 282.285156 178.914062 284.105469 183.300781 284.105469 187.875 L 284.105469 322.1875 C 284.105469 326.761719 282.285156 331.148438 279.050781 334.382812 C 275.816406 337.621094 271.429688 339.4375 266.855469 339.4375 L 80.59375 339.4375 C 76.015625 339.4375 71.628906 337.621094 68.394531 334.382812 C 65.160156 331.148438 63.34375 326.761719 63.34375 322.1875 L 63.34375 187.875 C 63.34375 183.300781 65.160156 178.914062 68.394531 175.679688 C 71.628906 172.441406 76.015625 170.625 80.59375 170.625 Z M 80.59375 170.625 " clip-rule="nonzero"/></clipPath><clipPath id="0e664cccf9"><path d="M 37 42 L 311 42 L 311 316 L 37 316 Z M 37 42 " clip-rule="nonzero"/></clipPath><clipPath id="7ae9ec36f0"><path d="M 30.300781 178.984375 L 173.722656 35.5625 L 317.148438 178.984375 L 173.722656 322.410156 Z M 30.300781 178.984375 " clip-rule="nonzero"/></clipPath><clipPath id="4dd80e6b27"><path d="M 42.496094 166.789062 L 161.527344 47.757812 C 164.761719 44.523438 169.148438 42.707031 173.722656 42.707031 C 178.300781 42.707031 182.6875 44.523438 185.921875 47.757812 L 304.949219 166.789062 C 308.183594 170.023438 310.003906 174.410156 310.003906 178.984375 C 310.003906 183.558594 308.183594 187.949219 304.949219 191.183594 L 185.921875 310.210938 C 182.6875 313.445312 178.300781 315.265625 173.722656 315.265625 C 169.148438 315.265625 164.761719 313.445312 161.527344 310.210938 L 42.496094 191.183594 C 39.261719 187.949219 37.445312 183.558594 37.445312 178.984375 C 37.445312 174.410156 39.261719 170.023438 42.496094 166.789062 Z M 42.496094 166.789062 " clip-rule="nonzero"/></clipPath><clipPath id="a10f0376b5"><path d="M 90.894531 170.625 L 311.800781 170.625 L 311.800781 339.4375 L 90.894531 339.4375 Z M 90.894531 170.625 " clip-rule="nonzero"/></clipPath><clipPath id="c7395ada93"><path d="M 108.144531 170.625 L 294.40625 170.625 C 298.984375 170.625 303.371094 172.441406 306.605469 175.679688 C 309.839844 178.914062 311.65625 183.300781 311.65625 187.875 L 311.65625 322.1875 C 311.65625 326.761719 309.839844 331.148438 306.605469 334.382812 C 303.371094 337.621094 298.984375 339.4375 294.40625 339.4375 L 108.144531 339.4375 C 103.570312 339.4375 99.183594 337.621094 95.949219 334.382812 C 92.714844 331.148438 90.894531 326.761719 90.894531 322.1875 L 90.894531 187.875 C 90.894531 183.300781 92.714844 178.914062 95.949219 175.679688 C 99.183594 172.441406 103.570312 170.625 108.144531 170.625 Z M 108.144531 170.625 " clip-rule="nonzero"/></clipPath><clipPath id="4fe5707a62"><path d="M 65 42 L 338 42 L 338 316 L 65 316 Z M 65 42 " clip-rule="nonzero"/></clipPath><clipPath id="77aacc9b56"><path d="M 57.855469 178.984375 L 201.277344 35.5625 L 344.703125 178.984375 L 201.277344 322.410156 Z M 57.855469 178.984375 " clip-rule="nonzero"/></clipPath><clipPath id="0c67b9399a"><path d="M 70.050781 166.789062 L 189.082031 47.757812 C 192.316406 44.523438 196.703125 42.707031 201.277344 42.707031 C 205.851562 42.707031 210.242188 44.523438 213.476562 47.757812 L 332.503906 166.789062 C 335.738281 170.023438 337.558594 174.410156 337.558594 178.984375 C 337.558594 183.558594 335.738281 187.949219 332.503906 191.183594 L 213.476562 310.210938 C 210.242188 313.445312 205.851562 315.265625 201.277344 315.265625 C 196.703125 315.265625 192.316406 313.445312 189.082031 310.210938 L 70.050781 191.183594 C 66.816406 187.949219 65 183.558594 65 178.984375 C 65 174.410156 66.816406 170.023438 70.050781 166.789062 Z M 70.050781 166.789062 " clip-rule="nonzero"/></clipPath></defs><g clip-path="url(#321bbd2541)"><g clip-path="url(#3ffd24eaaf)"><path fill="#ff5757" d="M 63.34375 170.625 L 284.246094 170.625 L 284.246094 339.4375 L 63.34375 339.4375 Z M 63.34375 170.625 " fill-opacity="1" fill-rule="nonzero"/></g></g><g clip-path="url(#0e664cccf9)"><g clip-path="url(#7ae9ec36f0)"><g clip-path="url(#4dd80e6b27)"><path fill="#ff5757" d="M 30.300781 178.984375 L 173.722656 35.5625 L 317.148438 178.984375 L 173.722656 322.410156 Z M 30.300781 178.984375 " fill-opacity="1" fill-rule="nonzero"/></g></g></g><g clip-path="url(#a10f0376b5)"><g clip-path="url(#c7395ada93)"><path fill="#f00b51" d="M 90.894531 170.625 L 311.800781 170.625 L 311.800781 339.4375 L 90.894531 339.4375 Z M 90.894531 170.625 " fill-opacity="1" fill-rule="nonzero"/></g></g><g clip-path="url(#4fe5707a62)"><g clip-path="url(#77aacc9b56)"><g clip-path="url(#0c67b9399a)"><path fill="#f00b51" d="M 57.855469 178.984375 L 201.277344 35.5625 L 344.703125 178.984375 L 201.277344 322.410156 Z M 57.855469 178.984375 " fill-opacity="1" fill-rule="nonzero"/></g></g></g></svg>