<svg xmlns="http://www.w3.org/2000/svg" xmlns:xlink="http://www.w3.org/1999/xlink" width="500" zoomAndPan="magnify" viewBox="0 0 375 374.999991" height="500" preserveAspectRatio="xMidYMid meet" version="1.0"><defs><clipPath id="bc74c62584"><path d="M 54.367188 108.882812 L 299 108.882812 L 299 295.945312 L 54.367188 295.945312 Z M 54.367188 108.882812 " clip-rule="nonzero"/></clipPath><clipPath id="ce74028581"><path d="M 176.652344 108.882812 C 109.117188 108.882812 54.367188 150.757812 54.367188 202.414062 C 54.367188 254.070312 109.117188 295.945312 176.652344 295.945312 C 244.1875 295.945312 298.9375 254.070312 298.9375 202.414062 C 298.9375 150.757812 244.1875 108.882812 176.652344 108.882812 Z M 176.652344 108.882812 " clip-rule="nonzero"/></clipPath><clipPath id="abda0686fd"><path d="M 20 87 L 170 87 L 170 224 L 20 224 Z M 20 87 " clip-rule="nonzero"/></clipPath><clipPath id="c759a81b41"><path d="M 48.03125 80.878906 L 176.523438 189.613281 L 141.902344 230.527344 L 13.410156 121.792969 Z M 48.03125 80.878906 " clip-rule="nonzero"/></clipPath><clipPath id="9484fd09da"><path d="M 61.199219 92.023438 L 163.246094 178.378906 C 166.738281 181.332031 168.914062 185.554688 169.292969 190.113281 C 169.671875 194.671875 168.226562 199.195312 165.269531 202.6875 L 152.9375 217.265625 C 149.980469 220.757812 145.757812 222.933594 141.199219 223.3125 C 136.640625 223.691406 132.117188 222.246094 128.625 219.289062 L 26.578125 132.933594 C 23.085938 129.980469 20.910156 125.757812 20.53125 121.199219 C 20.152344 116.640625 21.597656 112.117188 24.554688 108.625 L 36.890625 94.046875 C 39.84375 90.554688 44.066406 88.378906 48.625 88 C 53.183594 87.621094 57.707031 89.066406 61.199219 92.023438 Z M 61.199219 92.023438 " clip-rule="nonzero"/></clipPath><clipPath id="3e20563902"><path d="M 183 87 L 333 87 L 333 224 L 183 224 Z M 183 87 " clip-rule="nonzero"/></clipPath><clipPath id="8ecbe7b51d"><path d="M 176.414062 189.054688 L 305.628906 80.855469 L 340.039062 121.949219 L 210.824219 230.148438 Z M 176.414062 189.054688 " clip-rule="nonzero"/></clipPath><clipPath id="ac32c98584"><path d="M 189.640625 177.980469 L 292.382812 91.949219 C 295.886719 89.011719 300.417969 87.585938 304.976562 87.992188 C 309.535156 88.394531 313.742188 90.589844 316.679688 94.097656 L 328.941406 108.738281 C 331.878906 112.246094 333.300781 116.777344 332.898438 121.335938 C 332.496094 125.894531 330.296875 130.101562 326.789062 133.039062 L 224.046875 219.074219 C 220.539062 222.011719 216.011719 223.433594 211.453125 223.03125 C 206.894531 222.628906 202.683594 220.429688 199.75 216.921875 L 187.488281 202.28125 C 184.550781 198.773438 183.128906 194.242188 183.53125 189.6875 C 183.933594 185.128906 186.132812 180.917969 189.640625 177.980469 Z M 189.640625 177.980469 " clip-rule="nonzero"/></clipPath><clipPath id="3795f62f8b"><path d="M 198 161 L 335 161 L 335 280 L 198 280 Z M 198 161 " clip-rule="nonzero"/></clipPath><clipPath id="2db3081c77"><path d="M 192.207031 263.695312 L 321.433594 155.484375 L 340.050781 177.714844 L 210.824219 285.925781 Z M 192.207031 263.695312 " clip-rule="nonzero"/></clipPath><clipPath id="b0b351e5f4"><path d="M 203.320312 254.386719 L 310.28125 164.820312 C 313.230469 162.351562 317.039062 161.152344 320.871094 161.492188 C 324.699219 161.832031 328.238281 163.679688 330.707031 166.628906 C 333.175781 169.574219 334.371094 173.382812 334.035156 177.214844 C 333.695312 181.042969 331.847656 184.582031 328.898438 187.050781 L 221.9375 276.617188 C 218.992188 279.085938 215.183594 280.28125 211.351562 279.945312 C 207.523438 279.605469 203.984375 277.757812 201.515625 274.808594 C 199.046875 271.863281 197.847656 268.054688 198.1875 264.222656 C 198.527344 260.394531 200.375 256.855469 203.320312 254.386719 Z M 203.320312 254.386719 " clip-rule="nonzero"/></clipPath><clipPath id="fae694f1f7"><path d="M 19 160 L 155 160 L 155 280 L 19 280 Z M 19 160 " clip-rule="nonzero"/></clipPath><clipPath id="1a72be0765"><path d="M 32.214844 154.585938 L 160.515625 263.890625 L 141.710938 285.960938 L 13.410156 176.65625 Z M 32.214844 154.585938 " clip-rule="nonzero"/></clipPath><clipPath id="1178408319"><path d="M 43.25 163.988281 L 149.445312 254.457031 C 152.375 256.953125 154.191406 260.507812 154.496094 264.339844 C 154.804688 268.171875 153.574219 271.96875 151.082031 274.898438 C 148.585938 277.824219 145.03125 279.640625 141.199219 279.949219 C 137.367188 280.253906 133.570312 279.023438 130.640625 276.53125 L 24.445312 186.0625 C 21.519531 183.566406 19.703125 180.011719 19.394531 176.179688 C 19.089844 172.347656 20.316406 168.546875 22.8125 165.621094 C 25.304688 162.695312 28.859375 160.878906 32.691406 160.570312 C 36.527344 160.265625 40.324219 161.492188 43.25 163.988281 Z M 43.25 163.988281 " clip-rule="nonzero"/></clipPath><clipPath id="86c30f0987"><path d="M 75.9375 107.058594 L 320.730469 107.058594 L 320.730469 294.121094 L 75.9375 294.121094 Z M 75.9375 107.058594 " clip-rule="nonzero"/></clipPath><clipPath id="cbed6c4b70"><path d="M 198.222656 107.058594 C 130.6875 107.058594 75.9375 148.933594 75.9375 200.589844 C 75.9375 252.246094 130.6875 294.121094 198.222656 294.121094 C 265.761719 294.121094 320.511719 252.246094 320.511719 200.589844 C 320.511719 148.933594 265.761719 107.058594 198.222656 107.058594 Z M 198.222656 107.058594 " clip-rule="nonzero"/></clipPath><clipPath id="21af7eea06"><path d="M 42 86 L 191 86 L 191 222 L 42 222 Z M 42 86 " clip-rule="nonzero"/></clipPath><clipPath id="0b1a5ae5ea"><path d="M 69.601562 79.054688 L 198.09375 187.789062 L 163.472656 228.703125 L 34.980469 119.96875 Z M 69.601562 79.054688 " clip-rule="nonzero"/></clipPath><clipPath id="46ff00c000"><path d="M 82.769531 90.199219 L 184.816406 176.554688 C 188.308594 179.507812 190.484375 183.730469 190.863281 188.289062 C 191.242188 192.847656 189.796875 197.371094 186.839844 200.863281 L 174.507812 215.441406 C 171.550781 218.933594 167.328125 221.109375 162.769531 221.488281 C 158.210938 221.867188 153.6875 220.421875 150.195312 217.464844 L 48.148438 131.109375 C 44.65625 128.15625 42.480469 123.933594 42.101562 119.375 C 41.722656 114.816406 43.167969 110.292969 46.125 106.800781 L 58.460938 92.222656 C 61.414062 88.730469 65.636719 86.554688 70.195312 86.175781 C 74.753906 85.796875 79.277344 87.242188 82.769531 90.199219 Z M 82.769531 90.199219 " clip-rule="nonzero"/></clipPath><clipPath id="d04add3d3e"><path d="M 205 86 L 355 86 L 355 222 L 205 222 Z M 205 86 " clip-rule="nonzero"/></clipPath><clipPath id="9c3e2540ee"><path d="M 197.988281 187.234375 L 327.203125 79.035156 L 361.613281 120.125 L 232.398438 228.328125 Z M 197.988281 187.234375 " clip-rule="nonzero"/></clipPath><clipPath id="4d1f0edf05"><path d="M 211.214844 176.160156 L 313.957031 90.128906 C 317.464844 87.191406 321.996094 85.765625 326.550781 86.167969 C 331.109375 86.574219 335.320312 88.769531 338.257812 92.277344 L 350.515625 106.917969 C 353.453125 110.425781 354.875 114.957031 354.472656 119.515625 C 354.070312 124.070312 351.871094 128.28125 348.367188 131.21875 L 245.625 217.253906 C 242.117188 220.1875 237.585938 221.613281 233.027344 221.210938 C 228.472656 220.804688 224.261719 218.609375 221.324219 215.101562 L 209.0625 200.460938 C 206.125 196.953125 204.703125 192.421875 205.105469 187.863281 C 205.507812 183.308594 207.707031 179.097656 211.214844 176.160156 Z M 211.214844 176.160156 " clip-rule="nonzero"/></clipPath><clipPath id="4d18a53330"><path d="M 219 159 L 356 159 L 356 279 L 219 279 Z M 219 159 " clip-rule="nonzero"/></clipPath><clipPath id="c75f05cd32"><path d="M 213.78125 261.871094 L 343.007812 153.660156 L 361.625 175.894531 L 232.398438 284.105469 Z M 213.78125 261.871094 " clip-rule="nonzero"/></clipPath><clipPath id="7376d0a849"><path d="M 224.898438 252.5625 L 331.859375 163 C 334.804688 160.53125 338.613281 159.332031 342.445312 159.671875 C 346.273438 160.011719 349.8125 161.859375 352.28125 164.804688 C 354.75 167.753906 355.949219 171.5625 355.609375 175.394531 C 355.269531 179.222656 353.421875 182.761719 350.472656 185.230469 L 243.515625 274.796875 C 240.566406 277.265625 236.757812 278.460938 232.925781 278.121094 C 229.097656 277.785156 225.558594 275.9375 223.089844 272.988281 C 220.621094 270.039062 219.425781 266.230469 219.761719 262.402344 C 220.101562 258.570312 221.949219 255.03125 224.898438 252.5625 Z M 224.898438 252.5625 " clip-rule="nonzero"/></clipPath><clipPath id="dd58a07db1"><path d="M 40 158 L 177 158 L 177 279 L 40 279 Z M 40 158 " clip-rule="nonzero"/></clipPath><clipPath id="39f171d68e"><path d="M 53.785156 152.757812 L 182.089844 262.0625 L 163.285156 284.132812 L 34.980469 174.828125 Z M 53.785156 152.757812 " clip-rule="nonzero"/></clipPath><clipPath id="e6b6d0e66c"><path d="M 64.824219 162.160156 L 171.019531 252.628906 C 173.945312 255.125 175.761719 258.679688 176.070312 262.511719 C 176.375 266.34375 175.144531 270.140625 172.652344 273.070312 C 170.160156 275.996094 166.605469 277.8125 162.773438 278.121094 C 158.9375 278.425781 155.140625 277.195312 152.214844 274.703125 L 46.019531 184.234375 C 43.089844 181.738281 41.273438 178.183594 40.96875 174.351562 C 40.660156 170.519531 41.890625 166.71875 44.382812 163.792969 C 46.878906 160.867188 50.429688 159.050781 54.265625 158.742188 C 58.097656 158.4375 61.894531 159.664062 64.824219 162.160156 Z M 64.824219 162.160156 " clip-rule="nonzero"/></clipPath><clipPath id="ee3ee90bcc"><path d="M 108 166 L 170 166 L 170 209 L 108 209 Z M 108 166 " clip-rule="nonzero"/></clipPath><clipPath id="4f15ac4bb6"><path d="M 119.816406 157.171875 L 178.148438 178.910156 L 167.144531 208.425781 L 108.816406 186.6875 Z M 119.816406 157.171875 " clip-rule="nonzero"/></clipPath><clipPath id="b0b97d0349"><path d="M 119.816406 157.171875 L 178.148438 178.910156 L 167.144531 208.425781 L 108.816406 186.6875 Z M 119.816406 157.171875 " clip-rule="nonzero"/></clipPath><clipPath id="9eb4d3f4d4"><path d="M 226 166 L 287 166 L 287 209 L 226 209 Z M 226 166 " clip-rule="nonzero"/></clipPath><clipPath id="75f0cffdb4"><path d="M 217.621094 178.898438 L 276.179688 157.792969 L 286.863281 187.425781 L 228.300781 208.535156 Z M 217.621094 178.898438 " clip-rule="nonzero"/></clipPath><clipPath id="5842fdf420"><path d="M 217.621094 178.898438 L 276.179688 157.792969 L 286.863281 187.425781 L 228.300781 208.535156 Z M 217.621094 178.898438 " clip-rule="nonzero"/></clipPath></defs><g clip-path="url(#bc74c62584)"><g clip-path="url(#ce74028581)"><path fill="#ff5757" d="M 54.367188 108.882812 L 299.160156 108.882812 L 299.160156 295.945312 L 54.367188 295.945312 Z M 54.367188 108.882812 " fill-opacity="1" fill-rule="nonzero"/></g></g><g clip-path="url(#abda0686fd)"><g clip-path="url(#c759a81b41)"><g clip-path="url(#9484fd09da)"><path fill="#ff5757" d="M 48.03125 80.878906 L 176.363281 189.476562 L 141.742188 230.390625 L 13.410156 121.792969 Z M 48.03125 80.878906 " fill-opacity="1" fill-rule="nonzero"/></g></g></g><g clip-path="url(#3e20563902)"><g clip-path="url(#8ecbe7b51d)"><g clip-path="url(#ac32c98584)"><path fill="#ff5757" d="M 176.414062 189.054688 L 305.628906 80.855469 L 340.039062 121.949219 L 210.824219 230.148438 Z M 176.414062 189.054688 " fill-opacity="1" fill-rule="nonzero"/></g></g></g><g clip-path="url(#3795f62f8b)"><g clip-path="url(#2db3081c77)"><g clip-path="url(#b0b351e5f4)"><path fill="#ff5757" d="M 192.207031 263.695312 L 321.433594 155.484375 L 340.050781 177.714844 L 210.824219 285.925781 Z M 192.207031 263.695312 " fill-opacity="1" fill-rule="nonzero"/></g></g></g><g clip-path="url(#fae694f1f7)"><g clip-path="url(#1a72be0765)"><g clip-path="url(#1178408319)"><path fill="#ff5757" d="M 32.214844 154.585938 L 160.515625 263.890625 L 141.710938 285.960938 L 13.410156 176.65625 Z M 32.214844 154.585938 " fill-opacity="1" fill-rule="nonzero"/></g></g></g><g clip-path="url(#86c30f0987)"><g clip-path="url(#cbed6c4b70)"><path fill="#f00b51" d="M 75.9375 107.058594 L 320.730469 107.058594 L 320.730469 294.121094 L 75.9375 294.121094 Z M 75.9375 107.058594 " fill-opacity="1" fill-rule="nonzero"/></g></g><g clip-path="url(#21af7eea06)"><g clip-path="url(#0b1a5ae5ea)"><g clip-path="url(#46ff00c000)"><path fill="#f00b51" d="M 69.601562 79.054688 L 197.933594 187.652344 L 163.3125 228.566406 L 34.980469 119.96875 Z M 69.601562 79.054688 " fill-opacity="1" fill-rule="nonzero"/></g></g></g><g clip-path="url(#d04add3d3e)"><g clip-path="url(#9c3e2540ee)"><g clip-path="url(#4d1f0edf05)"><path fill="#f00b51" d="M 197.988281 187.234375 L 327.203125 79.035156 L 361.613281 120.125 L 232.398438 228.328125 Z M 197.988281 187.234375 " fill-opacity="1" fill-rule="nonzero"/></g></g></g><g clip-path="url(#4d18a53330)"><g clip-path="url(#c75f05cd32)"><g clip-path="url(#7376d0a849)"><path fill="#f00b51" d="M 213.78125 261.871094 L 343.007812 153.660156 L 361.625 175.894531 L 232.398438 284.105469 Z M 213.78125 261.871094 " fill-opacity="1" fill-rule="nonzero"/></g></g></g><g clip-path="url(#dd58a07db1)"><g clip-path="url(#39f171d68e)"><g clip-path="url(#e6b6d0e66c)"><path fill="#f00b51" d="M 53.785156 152.757812 L 182.089844 262.0625 L 163.285156 284.132812 L 34.980469 174.828125 Z M 53.785156 152.757812 " fill-opacity="1" fill-rule="nonzero"/></g></g></g><g clip-path="url(#ee3ee90bcc)"><g clip-path="url(#4f15ac4bb6)"><g clip-path="url(#b0b97d0349)"><path fill="#ff5757" d="M 125.535156 192.679688 L 108.894531 186.476562 C 114.925781 170.296875 132.941406 162.0625 149.125 168.09375 C 165.308594 174.125 173.539062 192.140625 167.507812 208.324219 L 150.878906 202.125 C 153.4375 195.152344 149.871094 187.40625 142.894531 184.804688 C 135.921875 182.207031 128.164062 185.730469 125.535156 192.679688 Z M 125.535156 192.679688 " fill-opacity="1" fill-rule="nonzero"/></g></g></g><g clip-path="url(#9eb4d3f4d4)"><g clip-path="url(#75f0cffdb4)"><g clip-path="url(#5842fdf420)"><path fill="#ff5757" d="M 244.933594 202.300781 L 228.226562 208.324219 C 222.371094 192.078125 230.796875 174.152344 247.042969 168.292969 C 263.292969 162.4375 281.21875 170.867188 287.074219 187.113281 L 270.378906 193.128906 C 267.824219 186.152344 260.09375 182.550781 253.089844 185.074219 C 246.089844 187.597656 242.449219 195.300781 244.933594 202.300781 Z M 244.933594 202.300781 " fill-opacity="1" fill-rule="nonzero"/></g></g></g></svg>