<svg xmlns="http://www.w3.org/2000/svg" xmlns:xlink="http://www.w3.org/1999/xlink" width="500" zoomAndPan="magnify" viewBox="0 0 375 374.999991" height="500" preserveAspectRatio="xMidYMid meet" version="1.0"><defs><clipPath id="8748483f91"><path d="M 72.730469 75.277344 L 296.484375 75.277344 L 296.484375 299.90625 L 72.730469 299.90625 Z M 72.730469 75.277344 " clip-rule="nonzero"/></clipPath><clipPath id="6a3c96cc53"><path d="M 89.980469 75.277344 L 279.234375 75.277344 C 283.8125 75.277344 288.199219 77.09375 291.433594 80.328125 C 294.667969 83.5625 296.484375 87.949219 296.484375 92.527344 L 296.484375 282.472656 C 296.484375 287.050781 294.667969 291.4375 291.433594 294.671875 C 288.199219 297.90625 283.8125 299.722656 279.234375 299.722656 L 89.980469 299.722656 C 85.40625 299.722656 81.019531 297.90625 77.785156 294.671875 C 74.546875 291.4375 72.730469 287.050781 72.730469 282.472656 L 72.730469 92.527344 C 72.730469 87.949219 74.546875 83.5625 77.785156 80.328125 C 81.019531 77.09375 85.40625 75.277344 89.980469 75.277344 Z M 89.980469 75.277344 " clip-rule="nonzero"/></clipPath><clipPath id="46505458bb"><path d="M 113.746094 75.277344 L 337.5 75.277344 L 337.5 299.90625 L 113.746094 299.90625 Z M 113.746094 75.277344 " clip-rule="nonzero"/></clipPath><clipPath id="cc3e3a16c5"><path d="M 130.996094 75.277344 L 320.25 75.277344 C 324.824219 75.277344 329.210938 77.09375 332.449219 80.328125 C 335.683594 83.5625 337.5 87.949219 337.5 92.527344 L 337.5 282.472656 C 337.5 287.050781 335.683594 291.4375 332.449219 294.671875 C 329.210938 297.90625 324.824219 299.722656 320.25 299.722656 L 130.996094 299.722656 C 126.421875 299.722656 122.03125 297.90625 118.796875 294.671875 C 115.5625 291.4375 113.746094 287.050781 113.746094 282.472656 L 113.746094 92.527344 C 113.746094 87.949219 115.5625 83.5625 118.796875 80.328125 C 122.03125 77.09375 126.421875 75.277344 130.996094 75.277344 Z M 130.996094 75.277344 " clip-rule="nonzero"/></clipPath><clipPath id="f5f5e07bfd"><path d="M 24.363281 164.25 L 164.402344 164.25 L 164.402344 210.75 L 24.363281 210.75 Z M 24.363281 164.25 " clip-rule="nonzero"/></clipPath><clipPath id="ef29b0b8af"><path d="M 41.613281 164.25 L 147.082031 164.25 C 151.65625 164.25 156.042969 166.070312 159.277344 169.304688 C 162.515625 172.539062 164.332031 176.925781 164.332031 181.5 L 164.332031 193.5 C 164.332031 198.074219 162.515625 202.460938 159.277344 205.695312 C 156.042969 208.929688 151.65625 210.75 147.082031 210.75 L 41.613281 210.75 C 37.039062 210.75 32.652344 208.929688 29.414062 205.695312 C 26.179688 202.460938 24.363281 198.074219 24.363281 193.5 L 24.363281 181.5 C 24.363281 176.925781 26.179688 172.539062 29.414062 169.304688 C 32.652344 166.070312 37.039062 164.25 41.613281 164.25 Z M 41.613281 164.25 " clip-rule="nonzero"/></clipPath><clipPath id="aae6a9fe09"><path d="M 124.492188 164.25 L 225.664062 164.25 L 225.664062 210.75 L 124.492188 210.75 Z M 124.492188 164.25 " clip-rule="nonzero"/></clipPath><clipPath id="32cfa0272e"><path d="M 141.742188 164.25 L 208.371094 164.25 C 212.949219 164.25 217.335938 166.070312 220.570312 169.304688 C 223.804688 172.539062 225.621094 176.925781 225.621094 181.5 L 225.621094 193.5 C 225.621094 198.074219 223.804688 202.460938 220.570312 205.695312 C 217.335938 208.929688 212.949219 210.75 208.371094 210.75 L 141.742188 210.75 C 137.167969 210.75 132.78125 208.929688 129.546875 205.695312 C 126.3125 202.460938 124.492188 198.074219 124.492188 193.5 L 124.492188 181.5 C 124.492188 176.925781 126.3125 172.539062 129.546875 169.304688 C 132.78125 166.070312 137.167969 164.25 141.742188 164.25 Z M 141.742188 164.25 " clip-rule="nonzero"/></clipPath><clipPath id="87b28bcc1a"><path d="M 113.746094 164.25 L 164.332031 164.25 L 164.332031 210.75 L 113.746094 210.75 Z M 113.746094 164.25 " clip-rule="nonzero"/></clipPath><clipPath id="93be09b89f"><path d="M 24 173 L 100 173 L 100 249 L 24 249 Z M 24 173 " clip-rule="nonzero"/></clipPath><clipPath id="aa72c9a2e7"><path d="M 50.070312 166.058594 L 106.582031 222.570312 L 73.703125 255.449219 L 17.191406 198.9375 Z M 50.070312 166.058594 " clip-rule="nonzero"/></clipPath><clipPath id="eda624f83e"><path d="M 62.269531 178.257812 L 94.378906 210.367188 C 97.613281 213.601562 99.429688 217.988281 99.429688 222.5625 C 99.429688 227.136719 97.613281 231.527344 94.378906 234.761719 L 85.894531 243.246094 C 82.660156 246.480469 78.269531 248.296875 73.695312 248.296875 C 69.121094 248.296875 64.734375 246.480469 61.5 243.246094 L 29.390625 211.136719 C 26.15625 207.902344 24.339844 203.511719 24.339844 198.9375 C 24.339844 194.363281 26.15625 189.976562 29.390625 186.742188 L 37.875 178.257812 C 41.109375 175.023438 45.496094 173.203125 50.070312 173.203125 C 54.648438 173.203125 59.035156 175.023438 62.269531 178.257812 Z M 62.269531 178.257812 " clip-rule="nonzero"/></clipPath><clipPath id="3c22b5b3fd"><path d="M 24 126 L 100 126 L 100 202 L 24 202 Z M 24 126 " clip-rule="nonzero"/></clipPath><clipPath id="454f9bb5fc"><path d="M 17.199219 176.058594 L 73.710938 119.546875 L 106.589844 152.425781 L 50.078125 208.9375 Z M 17.199219 176.058594 " clip-rule="nonzero"/></clipPath><clipPath id="637575863e"><path d="M 29.398438 163.859375 L 61.503906 131.753906 C 64.738281 128.519531 69.128906 126.699219 73.703125 126.699219 C 78.277344 126.699219 82.664062 128.519531 85.898438 131.753906 L 94.382812 140.238281 C 97.617188 143.472656 99.4375 147.859375 99.4375 152.433594 C 99.4375 157.007812 97.617188 161.398438 94.382812 164.632812 L 62.277344 196.738281 C 59.039062 199.976562 54.652344 201.792969 50.078125 201.792969 C 45.503906 201.792969 41.117188 199.976562 37.878906 196.738281 L 29.398438 188.257812 C 26.160156 185.019531 24.34375 180.632812 24.34375 176.058594 C 24.34375 171.484375 26.160156 167.097656 29.398438 163.859375 Z M 29.398438 163.859375 " clip-rule="nonzero"/></clipPath></defs><g clip-path="url(#8748483f91)"><g clip-path="url(#6a3c96cc53)"><path fill="#ff5757" d="M 72.730469 75.277344 L 296.484375 75.277344 L 296.484375 299.90625 L 72.730469 299.90625 Z M 72.730469 75.277344 " fill-opacity="1" fill-rule="nonzero"/></g></g><g clip-path="url(#46505458bb)"><g clip-path="url(#cc3e3a16c5)"><path fill="#f00b51" d="M 113.746094 75.277344 L 337.5 75.277344 L 337.5 299.90625 L 113.746094 299.90625 Z M 113.746094 75.277344 " fill-opacity="1" fill-rule="nonzero"/></g></g><g clip-path="url(#f5f5e07bfd)"><g clip-path="url(#ef29b0b8af)"><path fill="#f00b51" d="M 24.363281 164.25 L 164.402344 164.25 L 164.402344 210.75 L 24.363281 210.75 Z M 24.363281 164.25 " fill-opacity="1" fill-rule="nonzero"/></g></g><g clip-path="url(#aae6a9fe09)"><g clip-path="url(#32cfa0272e)"><path fill="#ff5757" d="M 124.492188 164.25 L 225.664062 164.25 L 225.664062 210.75 L 124.492188 210.75 Z M 124.492188 164.25 " fill-opacity="1" fill-rule="nonzero"/></g></g><g clip-path="url(#87b28bcc1a)"><path fill="#ff5757" d="M 113.746094 164.25 L 164.421875 164.25 L 164.421875 210.75 L 113.746094 210.75 Z M 113.746094 164.25 " fill-opacity="1" fill-rule="nonzero"/></g><g clip-path="url(#93be09b89f)"><g clip-path="url(#aa72c9a2e7)"><g clip-path="url(#eda624f83e)"><path fill="#f00b51" d="M 50.070312 166.058594 L 106.582031 222.570312 L 73.703125 255.449219 L 17.191406 198.9375 Z M 50.070312 166.058594 " fill-opacity="1" fill-rule="nonzero"/></g></g></g><g clip-path="url(#3c22b5b3fd)"><g clip-path="url(#454f9bb5fc)"><g clip-path="url(#637575863e)"><path fill="#f00b51" d="M 17.199219 176.058594 L 73.710938 119.546875 L 106.589844 152.425781 L 50.078125 208.9375 Z M 17.199219 176.058594 " fill-opacity="1" fill-rule="nonzero"/></g></g></g></svg>