<svg xmlns="http://www.w3.org/2000/svg" xmlns:xlink="http://www.w3.org/1999/xlink" width="500" zoomAndPan="magnify" viewBox="0 0 375 374.999991" height="500" preserveAspectRatio="xMidYMid meet" version="1.0"><defs><clipPath id="4259c3d5b8"><path d="M 104 58 L 317 58 L 317 271 L 104 271 Z M 104 58 " clip-rule="nonzero"/></clipPath><clipPath id="ddbbe142e7"><path d="M 97.289062 241.320312 L 287.191406 51.421875 L 323.578125 87.808594 L 133.675781 277.710938 Z M 97.289062 241.320312 " clip-rule="nonzero"/></clipPath><clipPath id="20fb69c6da"><path d="M 109.488281 229.125 L 274.976562 63.636719 C 281.710938 56.898438 292.636719 56.898438 299.371094 63.636719 L 311.363281 75.628906 C 318.101562 82.363281 318.101562 93.285156 311.363281 100.023438 L 145.875 265.511719 C 139.136719 272.25 128.214844 272.25 121.480469 265.511719 L 109.488281 253.519531 C 102.75 246.78125 102.75 235.859375 109.488281 229.125 Z M 109.488281 229.125 " clip-rule="nonzero"/></clipPath><clipPath id="c8e1f3bdc2"><path d="M 68 250 L 125 250 L 125 307 L 68 307 Z M 68 250 " clip-rule="nonzero"/></clipPath><clipPath id="177f85cbc1"><path d="M 85.421875 323.558594 L 51.441406 289.574219 L 90.734375 250.28125 L 124.714844 284.265625 Z M 85.421875 323.558594 " clip-rule="nonzero"/></clipPath><clipPath id="a1c7b9aeaa"><path d="M 68.433594 306.566406 L 90.730469 250.285156 L 124.710938 284.269531 Z M 68.433594 306.566406 " clip-rule="nonzero"/></clipPath></defs><g clip-path="url(#4259c3d5b8)"><g clip-path="url(#ddbbe142e7)"><g clip-path="url(#20fb69c6da)"><path fill="#f00b51" d="M 97.289062 241.320312 L 287.191406 51.421875 L 323.578125 87.808594 L 133.675781 277.710938 Z M 97.289062 241.320312 " fill-opacity="1" fill-rule="nonzero"/></g></g></g><g clip-path="url(#c8e1f3bdc2)"><g clip-path="url(#177f85cbc1)"><g clip-path="url(#a1c7b9aeaa)"><path fill="#f00b51" d="M 85.421875 323.558594 L 51.441406 289.574219 L 90.734375 250.28125 L 124.714844 284.265625 Z M 85.421875 323.558594 " fill-opacity="1" fill-rule="nonzero"/></g></g></g></svg>