<svg xmlns="http://www.w3.org/2000/svg" xmlns:xlink="http://www.w3.org/1999/xlink" width="500" zoomAndPan="magnify" viewBox="0 0 375 374.999991" height="500" preserveAspectRatio="xMidYMid meet" version="1.0"><defs><clipPath id="0be84fea9c"><path d="M 63.910156 27.160156 L 282.929688 27.160156 L 282.929688 308 L 63.910156 308 Z M 63.910156 27.160156 " clip-rule="nonzero"/></clipPath><clipPath id="d9c9d20ce9"><path d="M 81.160156 27.160156 L 265.679688 27.160156 C 270.253906 27.160156 274.644531 28.976562 277.878906 32.210938 C 281.113281 35.449219 282.929688 39.835938 282.929688 44.410156 L 282.929688 290.789062 C 282.929688 295.363281 281.113281 299.75 277.878906 302.984375 C 274.644531 306.222656 270.253906 308.039062 265.679688 308.039062 L 81.160156 308.039062 C 76.585938 308.039062 72.195312 306.222656 68.960938 302.984375 C 65.726562 299.75 63.910156 295.363281 63.910156 290.789062 L 63.910156 44.410156 C 63.910156 39.835938 65.726562 35.449219 68.960938 32.210938 C 72.195312 28.976562 76.585938 27.160156 81.160156 27.160156 Z M 81.160156 27.160156 " clip-rule="nonzero"/></clipPath><clipPath id="9152eeb349"><path d="M 38.878906 232.316406 L 308 232.316406 L 308 347.839844 L 38.878906 347.839844 Z M 38.878906 232.316406 " clip-rule="nonzero"/></clipPath><clipPath id="b507e3e6d1"><path d="M 173.421875 232.316406 L 307.960938 347.839844 L 38.878906 347.839844 Z M 173.421875 232.316406 " clip-rule="nonzero"/></clipPath><clipPath id="b14bffb636"><path d="M 92.070312 27.160156 L 311.089844 27.160156 L 311.089844 308 L 92.070312 308 Z M 92.070312 27.160156 " clip-rule="nonzero"/></clipPath><clipPath id="4b7adb2881"><path d="M 109.320312 27.160156 L 293.839844 27.160156 C 298.414062 27.160156 302.804688 28.976562 306.039062 32.210938 C 309.273438 35.449219 311.089844 39.835938 311.089844 44.410156 L 311.089844 290.789062 C 311.089844 295.363281 309.273438 299.75 306.039062 302.984375 C 302.804688 306.222656 298.414062 308.039062 293.839844 308.039062 L 109.320312 308.039062 C 104.746094 308.039062 100.355469 306.222656 97.121094 302.984375 C 93.886719 299.75 92.070312 295.363281 92.070312 290.789062 L 92.070312 44.410156 C 92.070312 39.835938 93.886719 35.449219 97.121094 32.210938 C 100.355469 28.976562 104.746094 27.160156 109.320312 27.160156 Z M 109.320312 27.160156 " clip-rule="nonzero"/></clipPath><clipPath id="050cb2d484"><path d="M 67.039062 232.316406 L 336 232.316406 L 336 347.839844 L 67.039062 347.839844 Z M 67.039062 232.316406 " clip-rule="nonzero"/></clipPath><clipPath id="98e9f9fc6f"><path d="M 201.578125 232.316406 L 336.121094 347.839844 L 67.039062 347.839844 Z M 201.578125 232.316406 " clip-rule="nonzero"/></clipPath></defs><g clip-path="url(#0be84fea9c)"><g clip-path="url(#d9c9d20ce9)"><path fill="#ff5757" d="M 63.910156 27.160156 L 282.929688 27.160156 L 282.929688 307.78125 L 63.910156 307.78125 Z M 63.910156 27.160156 " fill-opacity="1" fill-rule="nonzero"/></g></g><g clip-path="url(#9152eeb349)"><g clip-path="url(#b507e3e6d1)"><path fill="#ffffff" d="M 38.878906 232.316406 L 307.828125 232.316406 L 307.828125 347.839844 L 38.878906 347.839844 Z M 38.878906 232.316406 " fill-opacity="1" fill-rule="nonzero"/></g></g><g clip-path="url(#b14bffb636)"><g clip-path="url(#4b7adb2881)"><path fill="#f00b51" d="M 92.070312 27.160156 L 311.089844 27.160156 L 311.089844 307.78125 L 92.070312 307.78125 Z M 92.070312 27.160156 " fill-opacity="1" fill-rule="nonzero"/></g></g><g clip-path="url(#050cb2d484)"><g clip-path="url(#98e9f9fc6f)"><path fill="#ffffff" d="M 67.039062 232.316406 L 335.988281 232.316406 L 335.988281 347.839844 L 67.039062 347.839844 Z M 67.039062 232.316406 " fill-opacity="1" fill-rule="nonzero"/></g></g></svg>