<svg xmlns="http://www.w3.org/2000/svg" xmlns:xlink="http://www.w3.org/1999/xlink" width="500" zoomAndPan="magnify" viewBox="0 0 375 374.999991" height="500" preserveAspectRatio="xMidYMid meet" version="1.0"><defs><clipPath id="0199637c21"><path d="M 24.035156 37.5 L 232.535156 37.5 L 232.535156 246 L 24.035156 246 Z M 24.035156 37.5 " clip-rule="nonzero"/></clipPath><clipPath id="dcc33745fc"><path d="M 229 242 L 318 242 L 318 332 L 229 332 Z M 229 242 " clip-rule="nonzero"/></clipPath><clipPath id="76c3f328b7"><path d="M 223.15625 257.945312 L 244.484375 236.617188 L 324.050781 316.183594 L 302.722656 337.511719 Z M 223.15625 257.945312 " clip-rule="nonzero"/></clipPath><clipPath id="94e4b86e82"><path d="M 233.820312 247.28125 C 239.710938 241.390625 249.257812 241.390625 255.148438 247.28125 L 313.371094 305.503906 C 319.257812 311.390625 319.257812 320.941406 313.371094 326.832031 C 307.480469 332.722656 297.929688 332.722656 292.039062 326.832031 L 233.820312 268.609375 C 227.929688 262.722656 227.929688 253.171875 233.820312 247.28125 Z M 233.820312 247.28125 " clip-rule="nonzero"/></clipPath><clipPath id="9914a19eaa"><path d="M 50.964844 37.5 L 259.464844 37.5 L 259.464844 246 L 50.964844 246 Z M 50.964844 37.5 " clip-rule="nonzero"/></clipPath><clipPath id="6431113e00"><path d="M 256 242 L 345 242 L 345 332 L 256 332 Z M 256 242 " clip-rule="nonzero"/></clipPath><clipPath id="7c16fb7d98"><path d="M 250.085938 257.945312 L 271.414062 236.617188 L 350.980469 316.183594 L 329.652344 337.511719 Z M 250.085938 257.945312 " clip-rule="nonzero"/></clipPath><clipPath id="8f1ec53a5d"><path d="M 260.75 247.28125 C 266.636719 241.390625 276.1875 241.390625 282.078125 247.28125 L 340.296875 305.503906 C 346.1875 311.390625 346.1875 320.941406 340.296875 326.832031 C 334.40625 332.722656 324.859375 332.722656 318.96875 326.832031 L 260.75 268.609375 C 254.859375 262.722656 254.859375 253.171875 260.75 247.28125 Z M 260.75 247.28125 " clip-rule="nonzero"/></clipPath></defs><g clip-path="url(#0199637c21)"><path fill="#ff5757" d="M 232.546875 141.753906 C 232.546875 143.460938 232.503906 145.167969 232.421875 146.871094 C 232.339844 148.574219 232.210938 150.277344 232.046875 151.976562 C 231.878906 153.671875 231.667969 155.367188 231.417969 157.054688 C 231.167969 158.742188 230.878906 160.421875 230.542969 162.09375 C 230.210938 163.769531 229.835938 165.433594 229.421875 167.089844 C 229.007812 168.742188 228.554688 170.386719 228.058594 172.019531 C 227.5625 173.652344 227.027344 175.273438 226.453125 176.878906 C 225.878906 178.484375 225.265625 180.078125 224.613281 181.652344 C 223.957031 183.230469 223.265625 184.789062 222.539062 186.332031 C 221.808594 187.875 221.042969 189.398438 220.238281 190.902344 C 219.433594 192.40625 218.59375 193.890625 217.714844 195.355469 C 216.835938 196.816406 215.925781 198.257812 214.976562 199.675781 C 214.027344 201.097656 213.046875 202.492188 212.03125 203.859375 C 211.015625 205.230469 209.964844 206.574219 208.882812 207.894531 C 207.800781 209.214844 206.6875 210.503906 205.539062 211.769531 C 204.394531 213.035156 203.21875 214.269531 202.011719 215.476562 C 200.804688 216.683594 199.570312 217.859375 198.304688 219.003906 C 197.042969 220.148438 195.75 221.265625 194.429688 222.347656 C 193.113281 223.429688 191.765625 224.476562 190.398438 225.496094 C 189.027344 226.511719 187.632812 227.492188 186.214844 228.441406 C 184.792969 229.390625 183.351562 230.300781 181.890625 231.179688 C 180.425781 232.054688 178.941406 232.898438 177.4375 233.703125 C 175.933594 234.503906 174.410156 235.273438 172.867188 236.003906 C 171.324219 236.730469 169.765625 237.421875 168.1875 238.074219 C 166.613281 238.730469 165.019531 239.34375 163.414062 239.917969 C 161.808594 240.492188 160.1875 241.027344 158.554688 241.523438 C 156.921875 242.019531 155.277344 242.472656 153.625 242.886719 C 151.96875 243.300781 150.304688 243.675781 148.632812 244.007812 C 146.957031 244.339844 145.277344 244.632812 143.589844 244.882812 C 141.902344 245.132812 140.207031 245.34375 138.511719 245.507812 C 136.8125 245.675781 135.113281 245.800781 133.40625 245.886719 C 131.703125 245.96875 129.996094 246.011719 128.292969 246.011719 C 126.585938 246.011719 124.878906 245.96875 123.175781 245.886719 C 121.472656 245.800781 119.769531 245.675781 118.074219 245.507812 C 116.375 245.34375 114.683594 245.132812 112.996094 244.882812 C 111.304688 244.632812 109.625 244.339844 107.953125 244.007812 C 106.277344 243.675781 104.613281 243.300781 102.960938 242.886719 C 101.304688 242.472656 99.660156 242.019531 98.027344 241.523438 C 96.394531 241.027344 94.777344 240.492188 93.167969 239.917969 C 91.5625 239.34375 89.972656 238.730469 88.394531 238.074219 C 86.816406 237.421875 85.257812 236.730469 83.714844 236.003906 C 82.175781 235.273438 80.652344 234.503906 79.144531 233.703125 C 77.640625 232.898438 76.15625 232.054688 74.695312 231.179688 C 73.230469 230.300781 71.789062 229.390625 70.371094 228.441406 C 68.953125 227.492188 67.558594 226.511719 66.1875 225.496094 C 64.816406 224.476562 63.472656 223.429688 62.152344 222.347656 C 60.832031 221.265625 59.542969 220.148438 58.277344 219.003906 C 57.011719 217.859375 55.777344 216.683594 54.570312 215.476562 C 53.363281 214.269531 52.1875 213.035156 51.042969 211.769531 C 49.898438 210.503906 48.785156 209.214844 47.699219 207.894531 C 46.617188 206.574219 45.570312 205.230469 44.550781 203.859375 C 43.535156 202.492188 42.554688 201.097656 41.605469 199.675781 C 40.65625 198.257812 39.746094 196.816406 38.867188 195.355469 C 37.992188 193.890625 37.152344 192.40625 36.347656 190.902344 C 35.542969 189.398438 34.773438 187.875 34.046875 186.332031 C 33.316406 184.789062 32.625 183.230469 31.972656 181.652344 C 31.320312 180.078125 30.703125 178.484375 30.128906 176.878906 C 29.554688 175.273438 29.019531 173.652344 28.523438 172.019531 C 28.03125 170.386719 27.574219 168.742188 27.160156 167.089844 C 26.746094 165.433594 26.371094 163.769531 26.039062 162.09375 C 25.707031 160.421875 25.414062 158.742188 25.164062 157.054688 C 24.914062 155.367188 24.707031 153.671875 24.539062 151.976562 C 24.371094 150.277344 24.246094 148.574219 24.160156 146.871094 C 24.078125 145.167969 24.035156 143.460938 24.035156 141.753906 C 24.035156 140.050781 24.078125 138.34375 24.160156 136.640625 C 24.246094 134.9375 24.371094 133.234375 24.539062 131.535156 C 24.707031 129.839844 24.914062 128.144531 25.164062 126.457031 C 25.414062 124.769531 25.707031 123.089844 26.039062 121.417969 C 26.371094 119.742188 26.746094 118.078125 27.160156 116.421875 C 27.574219 114.769531 28.03125 113.125 28.523438 111.492188 C 29.019531 109.859375 29.554688 108.238281 30.128906 106.632812 C 30.703125 105.027344 31.320312 103.433594 31.972656 101.859375 C 32.625 100.28125 33.316406 98.722656 34.046875 97.179688 C 34.773438 95.636719 35.542969 94.113281 36.347656 92.609375 C 37.152344 91.105469 37.992188 89.621094 38.867188 88.15625 C 39.746094 86.695312 40.65625 85.253906 41.605469 83.835938 C 42.554688 82.414062 43.535156 81.019531 44.550781 79.652344 C 45.570312 78.28125 46.617188 76.9375 47.699219 75.617188 C 48.785156 74.296875 49.898438 73.007812 51.042969 71.742188 C 52.1875 70.476562 53.363281 69.242188 54.570312 68.035156 C 55.777344 66.828125 57.011719 65.652344 58.277344 64.507812 C 59.542969 63.363281 60.832031 62.246094 62.152344 61.164062 C 63.472656 60.082031 64.816406 59.03125 66.1875 58.015625 C 67.558594 57 68.953125 56.019531 70.371094 55.070312 C 71.789062 54.121094 73.230469 53.210938 74.695312 52.332031 C 76.15625 51.457031 77.640625 50.613281 79.144531 49.808594 C 80.652344 49.007812 82.175781 48.238281 83.714844 47.507812 C 85.257812 46.78125 86.816406 46.089844 88.394531 45.4375 C 89.972656 44.78125 91.5625 44.167969 93.167969 43.59375 C 94.777344 43.019531 96.394531 42.484375 98.027344 41.988281 C 99.660156 41.492188 101.304688 41.039062 102.960938 40.625 C 104.613281 40.210938 106.277344 39.835938 107.953125 39.503906 C 109.625 39.171875 111.304688 38.878906 112.996094 38.628906 C 114.683594 38.378906 116.375 38.167969 118.074219 38.003906 C 119.769531 37.835938 121.472656 37.710938 123.175781 37.625 C 124.878906 37.542969 126.585938 37.5 128.292969 37.5 C 129.996094 37.5 131.703125 37.542969 133.40625 37.625 C 135.113281 37.710938 136.8125 37.835938 138.511719 38.003906 C 140.207031 38.167969 141.902344 38.378906 143.589844 38.628906 C 145.277344 38.878906 146.957031 39.171875 148.632812 39.503906 C 150.304688 39.835938 151.96875 40.210938 153.625 40.625 C 155.277344 41.039062 156.921875 41.492188 158.554688 41.988281 C 160.1875 42.484375 161.808594 43.019531 163.414062 43.59375 C 165.019531 44.167969 166.613281 44.78125 168.1875 45.4375 C 169.765625 46.089844 171.324219 46.78125 172.867188 47.507812 C 174.410156 48.238281 175.933594 49.007812 177.4375 49.808594 C 178.941406 50.613281 180.425781 51.457031 181.890625 52.332031 C 183.351562 53.210938 184.792969 54.121094 186.214844 55.070312 C 187.632812 56.019531 189.027344 57 190.398438 58.015625 C 191.765625 59.03125 193.113281 60.082031 194.429688 61.164062 C 195.75 62.246094 197.042969 63.363281 198.304688 64.507812 C 199.570312 65.652344 200.804688 66.828125 202.011719 68.035156 C 203.21875 69.242188 204.394531 70.476562 205.539062 71.742188 C 206.6875 73.007812 207.800781 74.296875 208.882812 75.617188 C 209.964844 76.9375 211.015625 78.28125 212.03125 79.652344 C 213.046875 81.019531 214.027344 82.414062 214.976562 83.835938 C 215.925781 85.253906 216.835938 86.695312 217.714844 88.15625 C 218.59375 89.621094 219.433594 91.105469 220.238281 92.609375 C 221.042969 94.113281 221.808594 95.636719 222.539062 97.179688 C 223.265625 98.722656 223.957031 100.28125 224.613281 101.859375 C 225.265625 103.433594 225.878906 105.027344 226.453125 106.632812 C 227.027344 108.238281 227.5625 109.859375 228.058594 111.492188 C 228.554688 113.125 229.007812 114.769531 229.421875 116.421875 C 229.835938 118.078125 230.210938 119.742188 230.542969 121.417969 C 230.878906 123.089844 231.167969 124.769531 231.417969 126.457031 C 231.667969 128.144531 231.878906 129.839844 232.046875 131.535156 C 232.210938 133.234375 232.339844 134.9375 232.421875 136.640625 C 232.503906 138.34375 232.546875 140.050781 232.546875 141.753906 Z M 232.546875 141.753906 " fill-opacity="1" fill-rule="nonzero"/></g><g clip-path="url(#dcc33745fc)"><g clip-path="url(#76c3f328b7)"><g clip-path="url(#94e4b86e82)"><path fill="#ff5757" d="M 223.15625 257.945312 L 244.484375 236.617188 L 324.050781 316.183594 L 302.722656 337.511719 Z M 223.15625 257.945312 " fill-opacity="1" fill-rule="nonzero"/></g></g></g><g clip-path="url(#9914a19eaa)"><path fill="#f00b51" d="M 259.476562 141.753906 C 259.476562 143.460938 259.433594 145.167969 259.351562 146.871094 C 259.265625 148.574219 259.140625 150.277344 258.972656 151.976562 C 258.804688 153.671875 258.597656 155.367188 258.347656 157.054688 C 258.097656 158.742188 257.804688 160.421875 257.472656 162.09375 C 257.140625 163.769531 256.765625 165.433594 256.351562 167.089844 C 255.9375 168.742188 255.480469 170.386719 254.988281 172.019531 C 254.492188 173.652344 253.957031 175.273438 253.382812 176.878906 C 252.808594 178.484375 252.191406 180.078125 251.539062 181.652344 C 250.886719 183.230469 250.195312 184.789062 249.464844 186.332031 C 248.738281 187.875 247.96875 189.398438 247.164062 190.902344 C 246.359375 192.40625 245.519531 193.890625 244.644531 195.355469 C 243.765625 196.816406 242.851562 198.257812 241.90625 199.675781 C 240.957031 201.097656 239.976562 202.492188 238.960938 203.859375 C 237.941406 205.230469 236.894531 206.574219 235.8125 207.894531 C 234.726562 209.214844 233.613281 210.503906 232.46875 211.769531 C 231.324219 213.035156 230.148438 214.269531 228.941406 215.476562 C 227.734375 216.683594 226.5 217.859375 225.234375 219.003906 C 223.96875 220.148438 222.679688 221.265625 221.359375 222.347656 C 220.039062 223.429688 218.695312 224.476562 217.324219 225.496094 C 215.953125 226.511719 214.558594 227.492188 213.140625 228.441406 C 211.722656 229.390625 210.28125 230.300781 208.816406 231.179688 C 207.355469 232.054688 205.871094 232.898438 204.367188 233.703125 C 202.859375 234.503906 201.335938 235.273438 199.796875 236.003906 C 198.253906 236.730469 196.691406 237.421875 195.117188 238.074219 C 193.539062 238.730469 191.949219 239.34375 190.34375 239.917969 C 188.734375 240.492188 187.117188 241.027344 185.484375 241.523438 C 183.851562 242.019531 182.207031 242.472656 180.550781 242.886719 C 178.898438 243.300781 177.234375 243.675781 175.558594 244.007812 C 173.886719 244.339844 172.207031 244.632812 170.515625 244.882812 C 168.828125 245.132812 167.136719 245.34375 165.4375 245.507812 C 163.742188 245.675781 162.039062 245.800781 160.335938 245.886719 C 158.632812 245.96875 156.925781 246.011719 155.21875 246.011719 C 153.515625 246.011719 151.808594 245.96875 150.105469 245.886719 C 148.398438 245.800781 146.699219 245.675781 145 245.507812 C 143.304688 245.34375 141.609375 245.132812 139.921875 244.882812 C 138.234375 244.632812 136.554688 244.339844 134.878906 244.007812 C 133.207031 243.675781 131.542969 243.300781 129.886719 242.886719 C 128.234375 242.472656 126.589844 242.019531 124.957031 241.523438 C 123.324219 241.027344 121.703125 240.492188 120.097656 239.917969 C 118.492188 239.34375 116.898438 238.730469 115.324219 238.074219 C 113.746094 237.421875 112.1875 236.730469 110.644531 236.003906 C 109.101562 235.273438 107.578125 234.503906 106.074219 233.703125 C 104.570312 232.898438 103.085938 232.054688 101.621094 231.179688 C 100.160156 230.300781 98.71875 229.390625 97.296875 228.441406 C 95.878906 227.492188 94.484375 226.511719 93.113281 225.496094 C 91.746094 224.476562 90.398438 223.429688 89.082031 222.347656 C 87.761719 221.265625 86.46875 220.148438 85.207031 219.003906 C 83.941406 217.859375 82.707031 216.683594 81.5 215.476562 C 80.292969 214.269531 79.117188 213.035156 77.972656 211.769531 C 76.824219 210.503906 75.710938 209.214844 74.628906 207.894531 C 73.546875 206.574219 72.496094 205.230469 71.480469 203.859375 C 70.464844 202.492188 69.480469 201.097656 68.535156 199.675781 C 67.585938 198.257812 66.675781 196.816406 65.796875 195.355469 C 64.917969 193.890625 64.078125 192.40625 63.273438 190.902344 C 62.46875 189.398438 61.703125 187.875 60.972656 186.332031 C 60.246094 184.789062 59.554688 183.230469 58.898438 181.652344 C 58.246094 180.078125 57.632812 178.484375 57.058594 176.878906 C 56.484375 175.273438 55.949219 173.652344 55.453125 172.019531 C 54.957031 170.386719 54.503906 168.742188 54.089844 167.089844 C 53.675781 165.433594 53.300781 163.769531 52.96875 162.09375 C 52.632812 160.421875 52.34375 158.742188 52.09375 157.054688 C 51.84375 155.367188 51.632812 153.671875 51.464844 151.976562 C 51.300781 150.277344 51.171875 148.574219 51.089844 146.871094 C 51.007812 145.167969 50.964844 143.460938 50.964844 141.753906 C 50.964844 140.050781 51.007812 138.34375 51.089844 136.640625 C 51.171875 134.9375 51.300781 133.234375 51.464844 131.535156 C 51.632812 129.839844 51.84375 128.144531 52.09375 126.457031 C 52.34375 124.769531 52.632812 123.089844 52.96875 121.417969 C 53.300781 119.742188 53.675781 118.078125 54.089844 116.421875 C 54.503906 114.769531 54.957031 113.125 55.453125 111.492188 C 55.949219 109.859375 56.484375 108.238281 57.058594 106.632812 C 57.632812 105.027344 58.246094 103.433594 58.898438 101.859375 C 59.554688 100.28125 60.246094 98.722656 60.972656 97.179688 C 61.703125 95.636719 62.46875 94.113281 63.273438 92.609375 C 64.078125 91.105469 64.917969 89.621094 65.796875 88.15625 C 66.675781 86.695312 67.585938 85.253906 68.535156 83.835938 C 69.480469 82.414062 70.464844 81.019531 71.480469 79.652344 C 72.496094 78.28125 73.546875 76.9375 74.628906 75.617188 C 75.710938 74.296875 76.824219 73.007812 77.972656 71.742188 C 79.117188 70.476562 80.292969 69.242188 81.5 68.035156 C 82.707031 66.828125 83.941406 65.652344 85.207031 64.507812 C 86.46875 63.363281 87.761719 62.246094 89.082031 61.164062 C 90.398438 60.082031 91.746094 59.03125 93.113281 58.015625 C 94.484375 57 95.878906 56.019531 97.296875 55.070312 C 98.71875 54.121094 100.160156 53.210938 101.621094 52.332031 C 103.085938 51.457031 104.570312 50.613281 106.074219 49.808594 C 107.578125 49.007812 109.101562 48.238281 110.644531 47.507812 C 112.1875 46.78125 113.746094 46.089844 115.324219 45.4375 C 116.898438 44.78125 118.492188 44.167969 120.097656 43.59375 C 121.703125 43.019531 123.324219 42.484375 124.957031 41.988281 C 126.589844 41.492188 128.234375 41.039062 129.886719 40.625 C 131.542969 40.210938 133.207031 39.835938 134.878906 39.503906 C 136.554688 39.171875 138.234375 38.878906 139.921875 38.628906 C 141.609375 38.378906 143.304688 38.167969 145 38.003906 C 146.699219 37.835938 148.398438 37.710938 150.105469 37.625 C 151.808594 37.542969 153.515625 37.5 155.21875 37.5 C 156.925781 37.5 158.632812 37.542969 160.335938 37.625 C 162.039062 37.710938 163.742188 37.835938 165.4375 38.003906 C 167.136719 38.167969 168.828125 38.378906 170.515625 38.628906 C 172.207031 38.878906 173.886719 39.171875 175.558594 39.503906 C 177.234375 39.835938 178.898438 40.210938 180.550781 40.625 C 182.207031 41.039062 183.851562 41.492188 185.484375 41.988281 C 187.117188 42.484375 188.734375 43.019531 190.34375 43.59375 C 191.949219 44.167969 193.539062 44.78125 195.117188 45.4375 C 196.691406 46.089844 198.253906 46.78125 199.796875 47.507812 C 201.335938 48.238281 202.859375 49.007812 204.367188 49.808594 C 205.871094 50.613281 207.355469 51.457031 208.816406 52.332031 C 210.28125 53.210938 211.722656 54.121094 213.140625 55.070312 C 214.558594 56.019531 215.953125 57 217.324219 58.015625 C 218.695312 59.03125 220.039062 60.082031 221.359375 61.164062 C 222.679688 62.246094 223.96875 63.363281 225.234375 64.507812 C 226.5 65.652344 227.734375 66.828125 228.941406 68.035156 C 230.148438 69.242188 231.324219 70.476562 232.46875 71.742188 C 233.613281 73.007812 234.726562 74.296875 235.8125 75.617188 C 236.894531 76.9375 237.941406 78.28125 238.960938 79.652344 C 239.976562 81.019531 240.957031 82.414062 241.90625 83.835938 C 242.851562 85.253906 243.765625 86.695312 244.644531 88.15625 C 245.519531 89.621094 246.359375 91.105469 247.164062 92.609375 C 247.96875 94.113281 248.738281 95.636719 249.464844 97.179688 C 250.195312 98.722656 250.886719 100.28125 251.539062 101.859375 C 252.191406 103.433594 252.808594 105.027344 253.382812 106.632812 C 253.957031 108.238281 254.492188 109.859375 254.988281 111.492188 C 255.480469 113.125 255.9375 114.769531 256.351562 116.421875 C 256.765625 118.078125 257.140625 119.742188 257.472656 121.417969 C 257.804688 123.089844 258.097656 124.769531 258.347656 126.457031 C 258.597656 128.144531 258.804688 129.839844 258.972656 131.535156 C 259.140625 133.234375 259.265625 134.9375 259.351562 136.640625 C 259.433594 138.34375 259.476562 140.050781 259.476562 141.753906 Z M 259.476562 141.753906 " fill-opacity="1" fill-rule="nonzero"/></g><g clip-path="url(#6431113e00)"><g clip-path="url(#7c16fb7d98)"><g clip-path="url(#8f1ec53a5d)"><path fill="#f00b51" d="M 250.085938 257.945312 L 271.414062 236.617188 L 350.980469 316.183594 L 329.652344 337.511719 Z M 250.085938 257.945312 " fill-opacity="1" fill-rule="nonzero"/></g></g></g></svg>