<svg xmlns="http://www.w3.org/2000/svg" xmlns:xlink="http://www.w3.org/1999/xlink" width="500" zoomAndPan="magnify" viewBox="0 0 375 374.999991" height="500" preserveAspectRatio="xMidYMid meet" version="1.0"><defs><clipPath id="bedff7267c"><path d="M 19.53125 37.5 L 319.53125 37.5 L 319.53125 337.5 L 19.53125 337.5 Z M 19.53125 37.5 " clip-rule="nonzero"/></clipPath><clipPath id="ec72ec05ab"><path d="M 80.515625 98.484375 L 258.550781 98.484375 L 258.550781 276.515625 L 80.515625 276.515625 Z M 80.515625 98.484375 " clip-rule="nonzero"/></clipPath><clipPath id="a570d4840c"><path d="M 169.53125 98.484375 C 120.371094 98.484375 80.515625 138.335938 80.515625 187.5 C 80.515625 236.664062 120.371094 276.515625 169.53125 276.515625 C 218.695312 276.515625 258.550781 236.664062 258.550781 187.5 C 258.550781 138.335938 218.695312 98.484375 169.53125 98.484375 Z M 169.53125 98.484375 " clip-rule="nonzero"/></clipPath><clipPath id="8ff38b40fe"><path d="M 55.46875 37.5 L 355.46875 37.5 L 355.46875 337.5 L 55.46875 337.5 Z M 55.46875 37.5 " clip-rule="nonzero"/></clipPath><clipPath id="f38f74ef47"><path d="M 116.449219 98.484375 L 294.484375 98.484375 L 294.484375 276.515625 L 116.449219 276.515625 Z M 116.449219 98.484375 " clip-rule="nonzero"/></clipPath><clipPath id="f95c480a7d"><path d="M 205.46875 98.484375 C 156.304688 98.484375 116.449219 138.335938 116.449219 187.5 C 116.449219 236.664062 156.304688 276.515625 205.46875 276.515625 C 254.628906 276.515625 294.484375 236.664062 294.484375 187.5 C 294.484375 138.335938 254.628906 98.484375 205.46875 98.484375 Z M 205.46875 98.484375 " clip-rule="nonzero"/></clipPath></defs><g clip-path="url(#bedff7267c)"><path fill="#ff5757" d="M 169.53125 249.363281 C 135.363281 249.363281 107.667969 221.667969 107.667969 187.5 C 107.667969 153.332031 135.363281 125.632812 169.53125 125.632812 C 203.699219 125.632812 231.398438 153.332031 231.398438 187.5 C 231.398438 221.667969 203.699219 249.363281 169.53125 249.363281 Z M 311.433594 158.578125 L 283.734375 155.296875 C 281.234375 146.398438 277.683594 137.734375 273.070312 129.507812 L 290.324219 107.613281 C 293.207031 103.960938 292.894531 98.730469 289.605469 95.445312 L 261.589844 67.425781 C 258.300781 64.136719 253.070312 63.828125 249.417969 66.707031 L 227.527344 83.964844 C 219.296875 79.347656 210.632812 75.796875 201.738281 73.296875 L 198.460938 45.597656 C 197.910156 40.976562 193.996094 37.5 189.34375 37.5 L 149.71875 37.5 C 145.070312 37.5 141.15625 40.976562 140.609375 45.597656 L 137.328125 73.296875 C 128.429688 75.796875 119.769531 79.347656 111.539062 83.964844 L 89.644531 66.707031 C 85.992188 63.828125 80.761719 64.136719 77.472656 67.425781 L 49.457031 95.445312 C 46.171875 98.730469 45.859375 103.960938 48.742188 107.613281 L 65.996094 129.507812 C 61.382812 137.734375 57.828125 146.398438 55.328125 155.296875 L 27.628906 158.578125 C 23.011719 159.121094 19.53125 163.035156 19.53125 167.6875 L 19.53125 207.308594 C 19.53125 211.960938 23.011719 215.878906 27.628906 216.425781 L 55.328125 219.703125 C 57.828125 228.597656 61.382812 237.265625 65.996094 245.492188 L 48.742188 267.386719 C 45.859375 271.039062 46.171875 276.269531 49.457031 279.554688 L 77.472656 307.574219 C 80.761719 310.863281 85.992188 311.171875 89.644531 308.292969 L 111.539062 291.035156 C 119.769531 295.652344 128.429688 299.203125 137.328125 301.703125 L 140.609375 329.398438 C 141.15625 334.023438 145.070312 337.5 149.71875 337.5 L 188.6875 337.5 C 193.253906 337.5 197.128906 334.140625 197.773438 329.613281 L 201.738281 301.703125 C 210.632812 299.203125 219.296875 295.652344 227.527344 291.035156 L 249.417969 308.292969 C 253.070312 311.171875 258.300781 310.863281 261.589844 307.574219 L 289.605469 279.554688 C 292.894531 276.269531 293.207031 271.039062 290.324219 267.386719 L 273.070312 245.492188 C 277.683594 237.265625 281.234375 228.597656 283.734375 219.703125 L 311.433594 216.425781 C 316.054688 215.878906 319.53125 211.960938 319.53125 207.308594 L 319.53125 167.6875 C 319.53125 163.035156 316.054688 159.121094 311.433594 158.578125 " fill-opacity="1" fill-rule="nonzero"/></g><g clip-path="url(#ec72ec05ab)"><g clip-path="url(#a570d4840c)"><path fill="#ff5757" d="M 80.515625 98.484375 L 258.550781 98.484375 L 258.550781 276.515625 L 80.515625 276.515625 Z M 80.515625 98.484375 " fill-opacity="1" fill-rule="nonzero"/></g></g><g clip-path="url(#8ff38b40fe)"><path fill="#f00b51" d="M 205.46875 249.363281 C 171.300781 249.363281 143.601562 221.667969 143.601562 187.5 C 143.601562 153.332031 171.300781 125.632812 205.46875 125.632812 C 239.636719 125.632812 267.332031 153.332031 267.332031 187.5 C 267.332031 221.667969 239.636719 249.363281 205.46875 249.363281 Z M 347.367188 158.578125 L 319.671875 155.296875 C 317.167969 146.398438 313.617188 137.734375 309.003906 129.507812 L 326.257812 107.613281 C 329.140625 103.960938 328.828125 98.730469 325.542969 95.445312 L 297.523438 67.425781 C 294.238281 64.136719 289.007812 63.828125 285.351562 66.707031 L 263.460938 83.964844 C 255.230469 79.347656 246.566406 75.796875 237.671875 73.296875 L 234.394531 45.597656 C 233.84375 40.976562 229.929688 37.5 225.277344 37.5 L 185.65625 37.5 C 181.003906 37.5 177.089844 40.976562 176.542969 45.597656 L 173.261719 73.296875 C 164.367188 75.796875 155.703125 79.347656 147.472656 83.964844 L 125.578125 66.707031 C 121.929688 63.828125 116.699219 64.136719 113.410156 67.425781 L 85.394531 95.445312 C 82.105469 98.730469 81.792969 103.960938 84.675781 107.613281 L 101.929688 129.507812 C 97.316406 137.734375 93.761719 146.398438 91.265625 155.296875 L 63.5625 158.578125 C 58.945312 159.121094 55.46875 163.035156 55.46875 167.6875 L 55.46875 207.308594 C 55.46875 211.960938 58.945312 215.878906 63.5625 216.425781 L 91.265625 219.703125 C 93.761719 228.597656 97.316406 237.265625 101.929688 245.492188 L 84.675781 267.386719 C 81.792969 271.039062 82.105469 276.269531 85.394531 279.554688 L 113.410156 307.574219 C 116.699219 310.863281 121.929688 311.171875 125.578125 308.292969 L 147.472656 291.035156 C 155.703125 295.652344 164.367188 299.203125 173.261719 301.703125 L 176.542969 329.398438 C 177.089844 334.023438 181.003906 337.5 185.65625 337.5 L 224.621094 337.5 C 229.1875 337.5 233.0625 334.140625 233.707031 329.613281 L 237.671875 301.703125 C 246.566406 299.203125 255.230469 295.652344 263.460938 291.035156 L 285.351562 308.292969 C 289.007812 311.171875 294.238281 310.863281 297.523438 307.574219 L 325.542969 279.554688 C 328.828125 276.269531 329.140625 271.039062 326.257812 267.386719 L 309.003906 245.492188 C 313.617188 237.265625 317.167969 228.597656 319.671875 219.703125 L 347.367188 216.425781 C 351.988281 215.878906 355.46875 211.960938 355.46875 207.308594 L 355.46875 167.6875 C 355.46875 163.035156 351.988281 159.121094 347.367188 158.578125 " fill-opacity="1" fill-rule="nonzero"/></g><g clip-path="url(#f38f74ef47)"><g clip-path="url(#f95c480a7d)"><path fill="#f00b51" d="M 116.449219 98.484375 L 294.484375 98.484375 L 294.484375 276.515625 L 116.449219 276.515625 Z M 116.449219 98.484375 " fill-opacity="1" fill-rule="nonzero"/></g></g></svg>