<svg xmlns="http://www.w3.org/2000/svg" xmlns:xlink="http://www.w3.org/1999/xlink" width="500" zoomAndPan="magnify" viewBox="0 0 375 374.999991" height="500" preserveAspectRatio="xMidYMid meet" version="1.0"><defs><clipPath id="e57a1b0414"><path d="M 36 48.167969 L 337.757812 48.167969 L 337.757812 327 L 36 327 Z M 36 48.167969 " clip-rule="nonzero"/></clipPath></defs><g clip-path="url(#e57a1b0414)"><path fill="#f00b51" d="M 43.546875 326.847656 C 43.300781 326.847656 43.050781 326.828125 42.800781 326.789062 C 40.863281 326.472656 39.328125 324.976562 38.972656 323.046875 C 38.460938 320.296875 34.113281 295.269531 38.601562 263.253906 C 41.15625 245.042969 46.082031 227.800781 53.238281 212.007812 C 62.105469 192.449219 74.453125 175.027344 89.9375 160.230469 C 124.363281 127.335938 164.40625 116.335938 193.316406 113.082031 L 193.316406 53.195312 C 193.316406 51.335938 194.421875 49.65625 196.128906 48.921875 C 197.832031 48.1875 199.8125 48.535156 201.164062 49.808594 L 335.910156 176.980469 C 336.84375 177.859375 337.371094 179.082031 337.371094 180.363281 C 337.371094 181.644531 336.84375 182.867188 335.910156 183.746094 L 201.164062 310.921875 C 199.8125 312.195312 197.832031 312.546875 196.128906 311.808594 C 194.421875 311.074219 193.316406 309.394531 193.316406 307.539062 L 193.316406 236.496094 C 167.019531 237.027344 142.050781 243.265625 119.027344 255.074219 C 78.945312 275.632812 57.082031 307.363281 47.617188 324.449219 C 46.789062 325.945312 45.21875 326.847656 43.546875 326.847656 Z M 43.546875 326.847656 " fill-opacity="1" fill-rule="nonzero"/></g></svg>