<svg xmlns="http://www.w3.org/2000/svg" xmlns:xlink="http://www.w3.org/1999/xlink" width="500" zoomAndPan="magnify" viewBox="0 0 375 374.999991" height="500" preserveAspectRatio="xMidYMid meet" version="1.0"><defs><clipPath id="4a31b5ff75"><path d="M 38 34 L 345 34 L 345 341 L 38 341 Z M 38 34 " clip-rule="nonzero"/></clipPath><clipPath id="d2a4945d6d"><path d="M 77.078125 27.121094 L 351.730469 301.773438 L 305.59375 347.910156 L 30.941406 73.257812 Z M 77.078125 27.121094 " clip-rule="nonzero"/></clipPath><clipPath id="6b2788d5bc"><path d="M 89.273438 39.320312 L 339.507812 289.550781 C 346.246094 296.289062 346.246094 307.210938 339.507812 313.945312 L 317.765625 335.6875 C 311.03125 342.421875 300.109375 342.421875 293.371094 335.6875 L 43.140625 85.453125 C 36.402344 78.71875 36.402344 67.796875 43.140625 61.058594 L 64.878906 39.320312 C 71.617188 32.582031 82.539062 32.582031 89.273438 39.320312 Z M 89.273438 39.320312 " clip-rule="nonzero"/></clipPath><clipPath id="c249459267"><path d="M 30 34 L 337 34 L 337 341 L 30 341 Z M 30 34 " clip-rule="nonzero"/></clipPath><clipPath id="c76d1aad4c"><path d="M 344.042969 73.25 L 69.390625 347.902344 L 23.253906 301.769531 L 297.90625 27.117188 Z M 344.042969 73.25 " clip-rule="nonzero"/></clipPath><clipPath id="414a14d818"><path d="M 331.84375 85.449219 L 81.609375 335.683594 C 74.875 342.417969 63.953125 342.417969 57.214844 335.683594 L 35.476562 313.941406 C 28.738281 307.203125 28.738281 296.28125 35.476562 289.546875 L 285.707031 39.3125 C 292.445312 32.578125 303.367188 32.578125 310.101562 39.3125 L 331.84375 61.054688 C 338.582031 67.789062 338.582031 78.710938 331.84375 85.449219 Z M 331.84375 85.449219 " clip-rule="nonzero"/></clipPath></defs><g clip-path="url(#4a31b5ff75)"><g clip-path="url(#d2a4945d6d)"><g clip-path="url(#6b2788d5bc)"><path fill="#f00b51" d="M 77.078125 27.121094 L 351.730469 301.773438 L 305.59375 347.910156 L 30.941406 73.257812 Z M 77.078125 27.121094 " fill-opacity="1" fill-rule="nonzero"/></g></g></g><g clip-path="url(#c249459267)"><g clip-path="url(#c76d1aad4c)"><g clip-path="url(#414a14d818)"><path fill="#f00b51" d="M 344.042969 73.25 L 69.390625 347.902344 L 23.253906 301.769531 L 297.90625 27.117188 Z M 344.042969 73.25 " fill-opacity="1" fill-rule="nonzero"/></g></g></g></svg>